<svg xmlns="http://www.w3.org/2000/svg" width="651.826" height="442.25" viewBox="0 0 651.826 442.25"><defs><style>.a{fill:#e0e0e0;opacity:0.351;}.b{opacity:0.378;}.c{fill:#eaeaed;}.d,.g,.h,.k,.m,.r{opacity:0.1;}.e,.h{fill:#d8f1fb;}.f,.g,.n{fill:#d4fffe;}.i{fill:#3f3d56;}.j{fill:#00acc1;}.l,.m,.z{fill:#6c63ff;}.n{opacity:0.54;}.o{fill:#f1f2fa;}.p{fill:#d0d2d5;}.q{fill:#fff;}.r{fill:#444053;}.s{fill:#083d77;}.s,.z{opacity:0.3;}.t{fill:#fa5959;}.t,.u,.v{opacity:0.8;}.u{fill:#fed253;}.v{fill:#8ccf4d;}.w{fill:#2f2e41;}.x{fill:#83b3ff;}.y{fill:none;stroke:#3f3d56;stroke-miterlimit:10;}</style></defs><g transform="translate(0 0)"><ellipse class="a" cx="270.877" cy="21.033" rx="270.877" ry="21.033" transform="translate(27.808 400.184)"/><g class="b" transform="translate(433.304 58.656)"><path class="c" d="M894.082,496.85c-1.619-4.914-8.183-7.177-14.659-5.048a15.79,15.79,0,0,0-2.7,1.166c-.414-.115-.841-.217-1.275-.293a14.3,14.3,0,0,0,.4-4.328,15.679,15.679,0,0,0,6.947-13.684,15.7,15.7,0,0,0,6.922-13.684,15.143,15.143,0,0,0,5.245-5.94c3.123-6.182,1.829-13.13-2.893-15.52s-11.09.688-14.213,6.871a15.1,15.1,0,0,0-1.676,7.744,15.7,15.7,0,0,0-6.922,13.684,15.7,15.7,0,0,0-6.922,13.684,15.7,15.7,0,0,0-6.947,13.69,15.145,15.145,0,0,0-5.245,5.94,16.237,16.237,0,0,0-1.326,3.658,13.5,13.5,0,0,0-2.83-3.015,16.163,16.163,0,0,0-.637-2.868c-2.129-6.482-7.839-10.434-12.747-8.815s-7.177,8.177-5.048,14.659a14.7,14.7,0,0,0,4.818,7.062,16.18,16.18,0,0,0,.637,2.868,14.024,14.024,0,0,0,6.469,8.126,14.828,14.828,0,0,0-.529,2.486,16.121,16.121,0,0,0-4.806,9.5,16.1,16.1,0,0,0-4.806,9.509,15.7,15.7,0,0,0-3.187,4.341c-3.129,6.182-1.836,13.136,2.887,15.52s11.09-.682,14.219-6.871a15.692,15.692,0,0,0,1.594-5.156,16.118,16.118,0,0,0,4.806-9.5,16.106,16.106,0,0,0,4.806-9.51,16.066,16.066,0,0,0,4.748-9.5,16.068,16.068,0,0,0,4.819-9.522,15.375,15.375,0,0,0,2.161-2.549,14.951,14.951,0,0,0,7.82-.491,15.777,15.777,0,0,0,2.7-1.166,14.787,14.787,0,0,0,8.553-.306C891.724,507.481,895.694,501.77,894.082,496.85Z" transform="translate(-788.786 -254.137)"/><g class="d" transform="translate(36.346 201.749)"><path class="e" d="M914.12,499.53a13.7,13.7,0,0,1-2.192,1.753,14.666,14.666,0,0,1-.708,5.373,16.669,16.669,0,0,0,1.338-2.186,15.709,15.709,0,0,0,1.561-4.94Z" transform="translate(-856.599 -477.943)"/><path class="e" d="M924.98,478.06a13.717,13.717,0,0,1-2.193,1.753,14.659,14.659,0,0,1-.708,5.373,16.334,16.334,0,0,0,1.339-2.193,15.836,15.836,0,0,0,1.562-4.933Z" transform="translate(-860.537 -470.157)"/><path class="e" d="M899.777,468.471a13.968,13.968,0,0,1,.108-2.811,15.887,15.887,0,0,0-3.046,4.187,16.343,16.343,0,0,0-.969,2.377A14.5,14.5,0,0,1,899.777,468.471Z" transform="translate(-851.032 -465.66)"/><path class="e" d="M833.07,597.324a15.03,15.03,0,0,1,1.88-2.154,14.571,14.571,0,0,1,.554-2.549,15.975,15.975,0,0,0-1.46,2.365A16.311,16.311,0,0,0,833.07,597.324Z" transform="translate(-828.258 -511.701)"/><path class="e" d="M840.61,582.46a15.051,15.051,0,0,1,1.88-2.154,14.644,14.644,0,0,1,.529-2.486h0a16.372,16.372,0,0,0-1.4,2.288A17.04,17.04,0,0,0,840.61,582.46Z" transform="translate(-830.992 -506.334)"/><path class="e" d="M903.428,520.914a13.275,13.275,0,0,1-2.186,1.746,14.3,14.3,0,0,1-.4,4.328,11.943,11.943,0,0,1,1.275.293,15.789,15.789,0,0,1,2.7-1.166c6.488-2.129,13.047.134,14.659,5.048a7.444,7.444,0,0,1,.2,3.824c2.135-2.511,3.021-5.57,2.1-8.375-1.619-4.914-8.184-7.177-14.659-5.048a15.763,15.763,0,0,0-2.7,1.166c-.414-.115-.842-.217-1.275-.293C903.269,521.928,903.358,521.424,903.428,520.914Z" transform="translate(-852.834 -485.643)"/><path class="e" d="M827.961,607.49a16,16,0,0,0-1.46,2.365,16.945,16.945,0,0,0-.981,2.384,15.6,15.6,0,0,1,1.912-2.167A14.6,14.6,0,0,1,827.961,607.49Z" transform="translate(-825.52 -517.094)"/><path class="e" d="M888.867,489.941a14.013,14.013,0,0,1,.108-2.811,15.886,15.886,0,0,0-3.047,4.187,16.29,16.29,0,0,0-.969,2.377A14.5,14.5,0,0,1,888.867,489.941Z" transform="translate(-847.076 -473.446)"/><path class="e" d="M875.037,577.99a15.462,15.462,0,0,1-.637,2.792,16.97,16.97,0,0,0,1.332-2.193,16.252,16.252,0,0,0,1.039-2.549A15.442,15.442,0,0,1,875.037,577.99Z" transform="translate(-843.246 -505.688)"/><path class="e" d="M859.958,607.81a15.43,15.43,0,0,1-.637,2.792,16.355,16.355,0,0,0,1.338-2.192,16.85,16.85,0,0,0,1.039-2.549A15.029,15.029,0,0,1,859.958,607.81Z" transform="translate(-837.778 -516.502)"/><path class="e" d="M867.5,592.912a15.359,15.359,0,0,1-.637,2.792,17,17,0,0,0,1.364-2.154A16.256,16.256,0,0,0,869.263,591,15.45,15.45,0,0,1,867.5,592.912Z" transform="translate(-840.512 -511.114)"/><path class="e" d="M882.577,563.055a15.283,15.283,0,0,1-.637,2.785,16.49,16.49,0,0,0,1.332-2.186,16.233,16.233,0,0,0,1.045-2.594A14.787,14.787,0,0,1,882.577,563.055Z" transform="translate(-845.98 -500.256)"/><path class="e" d="M831.764,523.666c4.92-1.613,10.631,2.333,12.747,8.815a16.384,16.384,0,0,1,.637,2.875,13.5,13.5,0,0,1,2.83,3.015,16.259,16.259,0,0,1,1.326-3.665c.223-.433.465-.848.714-1.275a13.421,13.421,0,0,0-2.549-2.664,16.177,16.177,0,0,0-.637-2.868c-2.129-6.482-7.839-10.433-12.747-8.815-2.8.918-4.742,3.448-5.494,6.648a7.454,7.454,0,0,1,3.174-2.065Z" transform="translate(-826.633 -484.902)"/><path class="e" d="M867.147,532.884a13.925,13.925,0,0,1,.115-2.8,15.761,15.761,0,0,0-3.053,4.187,15.96,15.96,0,0,0-.969,2.371,14.661,14.661,0,0,1,3.907-3.754Z" transform="translate(-839.199 -489.021)"/><path class="e" d="M878.007,511.4a13.929,13.929,0,0,1,.115-2.8,15.628,15.628,0,0,0-3.053,4.181,16.344,16.344,0,0,0-.969,2.377A14.5,14.5,0,0,1,878.007,511.4Z" transform="translate(-843.137 -481.232)"/><path class="e" d="M852.417,622.706a15.456,15.456,0,0,1-.637,2.8,16.4,16.4,0,0,0,2.377-4.774A15.01,15.01,0,0,1,852.417,622.706Z" transform="translate(-835.043 -521.895)"/></g><path class="e" d="M933.351,418.035a15.1,15.1,0,0,0,5.245-5.94c3.13-6.182,1.836-13.136-2.887-15.526s-11.09.688-14.22,6.877a15.094,15.094,0,0,0-1.67,7.763,15.7,15.7,0,0,0-6.922,13.684,15.05,15.05,0,0,0-5.246,5.94,15.733,15.733,0,0,0-.962,2.352,13.289,13.289,0,0,1,6.864-5.1,7.8,7.8,0,0,0,9.9,5,13.288,13.288,0,0,1,0,8.547,16.207,16.207,0,0,0,1.326-2.167,15.093,15.093,0,0,0,1.67-7.744,15.66,15.66,0,0,0,6.922-13.684Z" transform="translate(-818.61 -238.562)"/><path class="f" d="M1001.585,243.591a45.872,45.872,0,0,0,5.558-3.078l-20.606-15.054,24.22,12.473a45.972,45.972,0,0,0,17.208-32.066l-41.16.421,41.25-6.9a45.89,45.89,0,1,0-90.874,11.651,45.94,45.94,0,0,0-8.451,5.1l21.511,29.911-25.826-26.183a45.94,45.94,0,0,0-12.855,41.817,45.89,45.89,0,1,0,64.405,32.569,45.89,45.89,0,0,0,25.622-50.664Z" transform="translate(-810.769 -151.843)"/><path class="g" d="M915.625,274.613a45.743,45.743,0,0,0-4.047,29.771,45.89,45.89,0,1,0,64.405,32.569C984.989,332.772,917.933,270.018,915.625,274.613Z" transform="translate(-810.776 -194.542)"/><circle class="e" cx="6.813" cy="6.813" r="6.813" transform="translate(149.751)"/><circle class="e" cx="6.813" cy="6.813" r="6.813" transform="translate(189.548 4.372)"/><circle class="e" cx="6.813" cy="6.813" r="6.813" transform="translate(204.896 65.597)"/><circle class="e" cx="6.813" cy="6.813" r="6.813" transform="translate(184.181 96.171)"/><circle class="e" cx="6.813" cy="6.813" r="6.813" transform="translate(155.883 159.671)"/><circle class="h" cx="6.813" cy="6.813" r="6.813" transform="translate(155.883 159.671)"/><circle class="e" cx="6.813" cy="6.813" r="6.813" transform="translate(92.963 87.751)"/><circle class="h" cx="6.813" cy="6.813" r="6.813" transform="translate(92.963 87.751)"/><path class="h" d="M910.587,464.928c-4.532-2.288-5.9-8.77-3.257-14.748-.14.242-.274.491-.4.752-3.129,6.182-1.836,13.13,2.887,15.52s11.09-.688,14.213-6.871c.134-.255.249-.516.363-.771C921.148,464.489,915.112,467.223,910.587,464.928Z" transform="translate(-818.077 -258.297)"/><path class="h" d="M900.027,485.8c-4.525-2.288-5.9-8.77-3.25-14.755-.14.249-.28.5-.408.752-3.129,6.182-1.836,13.136,2.887,15.52s11.09-.682,14.22-6.871c.127-.255.249-.51.363-.771C910.588,485.359,904.559,488.093,900.027,485.8Z" transform="translate(-814.247 -265.865)"/><path class="h" d="M889.468,506.678c-4.525-2.288-5.9-8.77-3.251-14.748-.14.242-.28.491-.408.752-3.129,6.182-1.829,13.129,2.894,15.52s11.084-.688,14.213-6.871c.128-.255.249-.516.363-.771C900.036,506.239,894,508.973,889.468,506.678Z" transform="translate(-810.419 -273.437)"/><path class="h" d="M878.946,527.608c-4.532-2.288-5.9-8.77-3.257-14.748-.14.242-.274.491-.408.746-3.123,6.182-1.829,13.136,2.894,15.526s11.09-.688,14.213-6.877c.134-.255.249-.51.363-.771C889.488,527.13,883.452,529.865,878.946,527.608Z" transform="translate(-806.602 -281.027)"/><path class="h" d="M868.357,548.429c-4.531-2.288-5.9-8.77-3.257-14.749-.14.242-.274.491-.4.752-3.129,6.182-1.835,13.13,2.887,15.52s11.09-.688,14.219-6.871c.128-.255.249-.516.363-.771C878.931,547.989,872.882,550.723,868.357,548.429Z" transform="translate(-802.763 -288.578)"/><path class="h" d="M857.8,569.308c-4.525-2.288-5.9-8.77-3.251-14.748-.14.242-.28.491-.408.746-3.129,6.182-1.836,13.136,2.893,15.526s11.058-.695,14.245-6.877c.128-.255.249-.51.363-.771C868.358,568.862,862.354,571.6,857.8,569.308Z" transform="translate(-798.933 -296.15)"/><path class="h" d="M847.24,590.179c-4.525-2.288-5.9-8.77-3.251-14.748-.14.249-.274.491-.408.752-3.123,6.182-1.829,13.129,2.893,15.52s11.09-.688,14.213-6.871c.134-.255.249-.516.363-.771C857.807,589.739,851.771,592.473,847.24,590.179Z" transform="translate(-795.106 -303.718)"/><path class="h" d="M836.687,611.058c-4.532-2.288-5.9-8.77-3.257-14.748q-.21.363-.4.746c-3.13,6.183-1.836,13.136,2.887,15.526s11.09-.688,14.219-6.877c.128-.255.242-.51.357-.771C847.248,610.612,841.213,613.321,836.687,611.058Z" transform="translate(-791.278 -311.29)"/><path class="h" d="M829.747,624.775c-4.525-2.294-5.9-8.77-3.25-14.755-.14.249-.281.5-.408.752-3.129,6.182-1.836,13.136,2.887,15.52s11.09-.682,14.22-6.871c.127-.255.248-.51.363-.771C840.308,624.329,834.272,627.063,829.747,624.775Z" transform="translate(-788.761 -316.262)"/><path class="f" d="M985.455,520.867a23.831,23.831,0,0,0,1.275-6.24,3.4,3.4,0,1,0-.516-6.769A23.781,23.781,0,0,0,973.7,491.728a3.406,3.406,0,0,0-6.08-3.072,3.2,3.2,0,0,0-.306.911,23.9,23.9,0,0,0-20.95,6.278,23.989,23.989,0,0,0-6.259-.185l-2.76,12.562-.166-12.11A23.85,23.85,0,1,0,949.922,542a3.366,3.366,0,0,0,1.434,1.377,3.4,3.4,0,0,0,4.665-4.385,23.8,23.8,0,0,0,3.059-2.5,23.869,23.869,0,0,0,25.055-12.639l-12.843-2.16Z" transform="translate(-822.867 -271.571)"/><g class="d" transform="translate(95.532 223.171)"><path class="e" d="M965.6,531.495c-4.742-6.259-7.648-13.671-10.995-20.784A86.936,86.936,0,0,0,950.1,502.2l-2.511-2.925c-.421.357-.841.727-1.275,1.115a23.991,23.991,0,0,0-6.259-.185l-2.759,12.562-.166-12.11a23.85,23.85,0,1,0,12.747,45.89,3.365,3.365,0,0,0,1.434,1.377,3.4,3.4,0,0,0,4.665-4.385,23.839,23.839,0,0,0,3.059-2.5,23.894,23.894,0,0,0,14.3-2.116A33.6,33.6,0,0,1,965.6,531.495Z" transform="translate(-918.381 -499.27)"/></g><path class="e" d="M827.269,480.3a3.4,3.4,0,0,0-3.047-4.94,23.819,23.819,0,0,0-7.457-13.276,23.915,23.915,0,0,0,.7-7.457l-12.524-2.135,12.161-.765a24.227,24.227,0,0,0-.9-3.365,3.479,3.479,0,0,0,1.122-1.275,3.41,3.41,0,0,0-4.2-4.742,23.85,23.85,0,0,0-42.569,19.707,3.346,3.346,0,0,0-1.7,1.593,3.4,3.4,0,0,0,4.3,4.7,23.918,23.918,0,0,0,4.519,5.513A23.836,23.836,0,0,0,778.791,489l16.794-4.359-14.978,7.878a23.85,23.85,0,0,0,43.92-10.363,3.4,3.4,0,0,0,2.741-1.855Z" transform="translate(-768.494 -251.803)"/><path class="h" d="M832.071,496.584a3.4,3.4,0,0,0-3.047-4.94,23.817,23.817,0,0,0-7.457-13.276c.1-.4.191-.8.268-1.2a8.394,8.394,0,0,0-1.23,1.09c-2.263,2.479-3.423,5.813-5.66,8.317a16.3,16.3,0,0,1-10.536,4.914,40.111,40.111,0,0,1-11.81-.95c-3.225-.637-6.495-1.377-9.765-1.064a5.474,5.474,0,0,0-.93.121c.191.185.382.37.58.548a23.838,23.838,0,0,0,1.109,15.144l16.794-4.366L785.41,508.8a23.85,23.85,0,0,0,43.92-10.363,3.4,3.4,0,0,0,2.74-1.855Z" transform="translate(-773.296 -268.085)"/></g><g class="d" transform="translate(0 203.566)"><path class="i" d="M177.405,551.658c.816-2.479,4.124-3.62,7.387-2.549a8.14,8.14,0,0,1,1.358.586c.21-.057.427-.108.637-.147a7.175,7.175,0,0,1-.2-2.18,7.942,7.942,0,0,1-3.486-6.9,7.921,7.921,0,0,1-3.486-6.89,7.647,7.647,0,0,1-2.639-3c-1.568-3.11-.931-6.609,1.46-7.82s5.59.351,7.164,3.461a7.648,7.648,0,0,1,.841,3.907,7.884,7.884,0,0,1,3.486,6.89,7.9,7.9,0,0,1,3.486,6.9,7.884,7.884,0,0,1,3.486,6.89,7.648,7.648,0,0,1,2.645,3,8.066,8.066,0,0,1,.637,1.848,6.8,6.8,0,0,1,1.421-1.523,8.023,8.023,0,0,1,.331-1.447c1.077-3.263,3.952-5.252,6.431-4.462s3.614,4.124,2.549,7.387a7.438,7.438,0,0,1-2.428,3.563,8.077,8.077,0,0,1-.331,1.44,7.074,7.074,0,0,1-3.257,4.092,8.189,8.189,0,0,1,.268,1.275,8.009,8.009,0,0,1,1.613,2.186,7.852,7.852,0,0,1,.8,2.6,8,8,0,0,1,1.619,2.186,7.9,7.9,0,0,1,.8,2.6,7.933,7.933,0,0,1,1.619,2.192c1.574,3.11.924,6.616-1.453,7.814s-5.59-.344-7.164-3.461a7.954,7.954,0,0,1-.8-2.6,8.094,8.094,0,0,1-2.422-4.786,8.1,8.1,0,0,1-2.422-4.787,8.03,8.03,0,0,1-1.619-2.186,8.112,8.112,0,0,1-.8-2.6,8.012,8.012,0,0,1-1.613-2.186,7.853,7.853,0,0,1-.8-2.6,7.416,7.416,0,0,1-1.09-1.275,7.587,7.587,0,0,1-3.939-.242,8.471,8.471,0,0,1-1.364-.593,7.4,7.4,0,0,1-4.3-.153C178.591,557.012,176.6,554.137,177.405,551.658Z" transform="translate(-120.368 -429.381)"/><g class="d" transform="translate(56.886 101.64)"><path d="M187.17,553a6.833,6.833,0,0,0,1.109.886,7.209,7.209,0,0,0,.357,2.7,7.611,7.611,0,0,1-.676-1.1A7.944,7.944,0,0,1,187.17,553Z" transform="translate(-181.263 -542.133)"/><path d="M181.7,542.2a7.145,7.145,0,0,0,1.109.879,7.26,7.26,0,0,0,.357,2.709A8.1,8.1,0,0,1,181.7,542.2Z" transform="translate(-179.28 -538.217)"/><path d="M194.1,537.365a7.086,7.086,0,0,0-.051-1.415,8.076,8.076,0,0,1,1.536,2.11,8.286,8.286,0,0,1,.484,1.2A7.274,7.274,0,0,0,194.1,537.365Z" transform="translate(-183.758 -535.95)"/><path d="M228.134,602.288a7.422,7.422,0,0,0-.943-1.083,7.906,7.906,0,0,0-.28-1.275,8.426,8.426,0,0,1,.733,1.186A8.275,8.275,0,0,1,228.134,602.288Z" transform="translate(-195.675 -559.152)"/><path d="M224.311,594.778a7.425,7.425,0,0,0-.943-1.083,7.484,7.484,0,0,0-.268-1.275h0a8.076,8.076,0,0,1,1.2,2.345Z" transform="translate(-194.293 -556.428)"/><path d="M187.3,563.789a6.443,6.443,0,0,0,1.1.873,6.947,6.947,0,0,0,.2,2.18,6.4,6.4,0,0,0-.637.146,8.457,8.457,0,0,0-1.364-.586c-3.263-1.071-6.571.07-7.381,2.549a3.709,3.709,0,0,0-.108,1.912,4.417,4.417,0,0,1-1.058-4.213c.816-2.479,4.124-3.62,7.387-2.549a8.159,8.159,0,0,1,1.358.586c.21-.057.427-.108.637-.146A6.579,6.579,0,0,1,187.3,563.789Z" transform="translate(-177.902 -546.013)"/><path d="M230.71,607.4a8.159,8.159,0,0,1,.733,1.192,8.279,8.279,0,0,1,.491,1.2,7.483,7.483,0,0,0-.943-1.09A7.9,7.9,0,0,0,230.71,607.4Z" transform="translate(-197.053 -561.861)"/><path d="M199.571,548.2a7.061,7.061,0,0,0-.051-1.415,7.961,7.961,0,0,1,1.536,2.11,8.218,8.218,0,0,1,.484,1.192A7.251,7.251,0,0,0,199.571,548.2Z" transform="translate(-185.742 -539.878)"/><path d="M207.006,592.531a7.613,7.613,0,0,0,.312,1.4,8.048,8.048,0,0,1-1.2-2.4A7.463,7.463,0,0,0,207.006,592.531Z" transform="translate(-188.135 -556.106)"/><path d="M214.6,607.565a8.072,8.072,0,0,0,.319,1.4,7.621,7.621,0,0,1-.676-1.1,8.219,8.219,0,0,1-.523-1.275A8.3,8.3,0,0,0,214.6,607.565Z" transform="translate(-190.891 -561.567)"/><path d="M210.806,600.055a7.609,7.609,0,0,0,.312,1.4,8.209,8.209,0,0,1-.676-1.1,8.036,8.036,0,0,1-.523-1.275A7.471,7.471,0,0,0,210.806,600.055Z" transform="translate(-189.513 -558.844)"/><path d="M203.224,585.029a7.565,7.565,0,0,0,.312,1.409,7.934,7.934,0,0,1-.637-1.1,7.8,7.8,0,0,1-.529-1.275A7.107,7.107,0,0,0,203.224,585.029Z" transform="translate(-186.775 -553.397)"/><path d="M223.34,565.179c-2.479-.816-5.354,1.173-6.425,4.461a8.028,8.028,0,0,0-.331,1.447,6.769,6.769,0,0,0-1.428,1.517,8.174,8.174,0,0,0-.669-1.848c-.108-.217-.229-.427-.357-.637a6.768,6.768,0,0,1,1.275-1.338,8.015,8.015,0,0,1,.331-1.447c1.077-3.263,3.952-5.252,6.431-4.462a4.417,4.417,0,0,1,2.766,3.352,3.78,3.78,0,0,0-1.593-1.045Z" transform="translate(-191.04 -545.65)"/><path d="M210.511,569.815a7.08,7.08,0,0,0-.051-1.415A7.958,7.958,0,0,1,212,570.51a8.276,8.276,0,0,1,.484,1.2A7.186,7.186,0,0,0,210.511,569.815Z" transform="translate(-189.709 -547.718)"/><path d="M205.041,559a7.1,7.1,0,0,0-.051-1.415,8.182,8.182,0,0,1,1.536,2.11,8.3,8.3,0,0,1,.484,1.2A7.278,7.278,0,0,0,205.041,559Z" transform="translate(-187.726 -543.794)"/><path d="M218.4,615.075a7.584,7.584,0,0,0,.319,1.409,8.047,8.047,0,0,1-.676-1.109,8.209,8.209,0,0,1-.523-1.275A8.278,8.278,0,0,0,218.4,615.075Z" transform="translate(-192.269 -564.29)"/></g><path class="i" d="M168.68,511.957a7.6,7.6,0,0,1-2.639-2.989c-1.574-3.117-.924-6.616,1.453-7.82s5.59.344,7.164,3.461a7.6,7.6,0,0,1,.841,3.9,7.9,7.9,0,0,1,3.486,6.9,7.649,7.649,0,0,1,2.645,2.989,8.436,8.436,0,0,1,.484,1.185,6.738,6.738,0,0,0-3.461-2.549,3.926,3.926,0,0,1-4.991,2.549,6.706,6.706,0,0,0,0,4.3,8.394,8.394,0,0,1-.637-1.09,7.648,7.648,0,0,1-.848-3.9,7.922,7.922,0,0,1-3.486-6.9Z" transform="translate(-116.404 -421.542)"/><path class="j" d="M102.967,423.911a23.465,23.465,0,0,1-2.8-1.549l10.376-7.585-12.2,6.278A23.162,23.162,0,0,1,89.685,404.9l20.74.217-20.784-3.48a23.13,23.13,0,1,1,45.769,5.864,23.408,23.408,0,0,1,4.258,2.549l-10.835,15.067,13.009-13.181a23.149,23.149,0,0,1,6.476,21.065,23.13,23.13,0,1,1-32.442,16.406,23.123,23.123,0,0,1-12.906-25.494Z" transform="translate(-89.009 -377.689)"/><path class="k" d="M160.942,439.711a23.021,23.021,0,0,1,2.04,15,23.13,23.13,0,1,1-32.442,16.406C126,469,159.775,437.4,160.942,439.711Z" transform="translate(-103.675 -399.366)"/><circle class="l" cx="3.435" cy="3.435" r="3.435" transform="translate(27.776)"/><circle class="l" cx="3.435" cy="3.435" r="3.435" transform="translate(7.725 2.205)"/><circle class="l" cx="3.435" cy="3.435" r="3.435" transform="translate(0 33.047)"/><circle class="l" cx="3.435" cy="3.435" r="3.435" transform="translate(10.434 48.452)"/><circle class="l" cx="3.435" cy="3.435" r="3.435" transform="translate(24.685 80.441)"/><circle class="k" cx="3.435" cy="3.435" r="3.435" transform="translate(24.685 80.441)"/><circle class="l" cx="3.435" cy="3.435" r="3.435" transform="translate(56.381 44.207)"/><circle class="k" cx="3.435" cy="3.435" r="3.435" transform="translate(56.381 44.207)"/><path class="k" d="M184.29,535.582c2.282-1.154,2.97-4.417,1.638-7.432.07.128.14.249.2.376,1.574,3.117.924,6.616-1.46,7.82s-5.583-.344-7.158-3.461c-.064-.127-.127-.255-.185-.389C178.968,535.359,182.008,536.735,184.29,535.582Z" transform="translate(-120.809 -431.482)"/><path class="k" d="M189.6,546.1c2.282-1.154,2.976-4.423,1.644-7.432.07.121.14.249.2.376,1.574,3.117.924,6.616-1.46,7.821s-5.583-.344-7.158-3.461c-.07-.128-.127-.261-.185-.389C184.288,545.892,187.335,547.255,189.6,546.1Z" transform="translate(-122.738 -435.297)"/><path class="k" d="M194.924,556.612c2.282-1.154,2.976-4.417,1.638-7.432.076.128.14.249.21.383,1.574,3.11.918,6.616-1.46,7.814s-5.583-.344-7.158-3.461c-.07-.127-.128-.255-.185-.389C189.6,556.389,192.642,557.765,194.924,556.612Z" transform="translate(-124.668 -439.108)"/><path class="k" d="M200.244,567.132c2.282-1.154,2.976-4.417,1.638-7.431.07.121.14.249.2.376,1.581,3.117.924,6.616-1.453,7.82s-5.59-.344-7.164-3.461c-.064-.127-.121-.261-.178-.389C194.922,566.9,197.962,568.285,200.244,567.132Z" transform="translate(-126.597 -442.923)"/><path class="k" d="M205.56,577.645c2.282-1.154,2.97-4.417,1.638-7.425.07.121.14.249.2.376,1.574,3.117.924,6.616-1.453,7.821s-5.59-.351-7.164-3.461c-.064-.134-.121-.261-.185-.389C200.238,577.422,203.278,578.8,205.56,577.645Z" transform="translate(-128.523 -446.738)"/><path class="k" d="M210.88,588.162c2.282-1.154,2.97-4.417,1.638-7.432.07.128.14.249.2.376,1.574,3.117.924,6.616-1.453,7.82s-5.59-.344-7.164-3.461c-.064-.128-.127-.255-.185-.389C205.558,587.913,208.6,589.315,210.88,588.162Z" transform="translate(-130.452 -450.55)"/><path class="k" d="M216.2,598.682c2.275-1.154,2.97-4.423,1.638-7.432.07.121.14.249.2.376,1.574,3.117.924,6.616-1.46,7.82s-5.583-.35-7.158-3.461c-.064-.134-.128-.261-.185-.389C210.878,598.452,213.918,599.835,216.2,598.682Z" transform="translate(-132.381 -454.365)"/><path class="k" d="M221.514,609.192c2.282-1.154,2.976-4.417,1.638-7.432.077.128.14.249.21.382,1.574,3.11.918,6.616-1.46,7.814s-5.583-.344-7.158-3.461c-.07-.127-.128-.255-.185-.389C216.2,608.969,219.232,610.345,221.514,609.192Z" transform="translate(-134.31 -458.176)"/><path class="k" d="M225.04,616.1c2.282-1.154,2.97-4.417,1.638-7.432.07.127.14.249.2.382,1.574,3.11.924,6.616-1.453,7.814s-5.59-.344-7.164-3.461c-.064-.127-.127-.255-.185-.389C219.7,615.891,222.739,617.255,225.04,616.1Z" transform="translate(-135.587 -460.682)"/><path class="j" d="M131.525,563.76a11.834,11.834,0,0,1-.637-3.142,1.714,1.714,0,1,1,.261-3.41,12,12,0,0,1,6.3-8.126,1.717,1.717,0,1,1,3.066-1.549,1.554,1.554,0,0,1,.153.459,12.058,12.058,0,0,1,10.555,3.187,11.909,11.909,0,0,1,3.187-.089l1.389,6.322.032-6.1a12.014,12.014,0,1,1-6.425,23.13,1.759,1.759,0,0,1-.72.695,1.721,1.721,0,0,1-2.358-2.212,12.011,12.011,0,0,1-1.536-1.275,12.027,12.027,0,0,1-12.62-6.374l6.469-1.09Z" transform="translate(-103.348 -438.169)"/><g class="d" transform="translate(34.239 112.43)"><path d="M146.3,569.114c2.39-3.187,3.856-6.883,5.539-10.465a42.517,42.517,0,0,1,2.269-4.3l1.275-1.472c.217.185.427.37.637.561a11.9,11.9,0,0,1,3.187-.089l1.389,6.323.019-6.08a12.014,12.014,0,1,1-6.425,23.13,1.759,1.759,0,0,1-.72.695,1.721,1.721,0,0,1-2.358-2.212,12.007,12.007,0,0,1-1.536-1.275,12.109,12.109,0,0,1-7.209-1.064,16.942,16.942,0,0,0,3.933-3.754Z" transform="translate(-142.37 -552.88)"/></g><path class="l" d="M214.8,543.332a1.708,1.708,0,0,1,.758-2.3,1.685,1.685,0,0,1,.778-.185,12.015,12.015,0,0,1,3.754-6.692,11.927,11.927,0,0,1-.35-3.754l6.3-1.058-6.125-.389a11.883,11.883,0,0,1,.459-1.7,1.683,1.683,0,0,1-.567-.637,1.721,1.721,0,0,1,2.116-2.39,11.875,11.875,0,0,1,4.379-3.78,12.008,12.008,0,0,1,17.062,13.7,1.715,1.715,0,0,1-1.313,3.168,11.948,11.948,0,0,1-2.275,2.766,12.047,12.047,0,0,1-.555,7.648l-8.432-2.218,7.54,3.971a12.021,12.021,0,0,1-20.924-.982,12.176,12.176,0,0,1-1.236-4.238,1.7,1.7,0,0,1-1.37-.937Z" transform="translate(-134.332 -428.218)"/><path class="k" d="M214.8,551.527a1.708,1.708,0,0,1,.758-2.3,1.686,1.686,0,0,1,.778-.185,12.015,12.015,0,0,1,3.754-6.692c-.051-.2-.1-.4-.134-.6a4.633,4.633,0,0,1,.637.548c1.141,1.275,1.727,2.926,2.849,4.188a8.228,8.228,0,0,0,5.309,2.479,20.105,20.105,0,0,0,5.947-.478,17.436,17.436,0,0,1,4.92-.542l.472.064-.293.274a12.047,12.047,0,0,1-.555,7.648l-8.451-2.218,7.54,3.971a12.021,12.021,0,0,1-20.924-.981,12.179,12.179,0,0,1-1.236-4.239,1.7,1.7,0,0,1-1.37-.937Z" transform="translate(-134.332 -436.414)"/></g><path class="m" d="M413,99.227a12.894,12.894,0,0,0-7.483.816,11.039,11.039,0,0,1-8.987,0,12.594,12.594,0,0,0-10.567.21,6.551,6.551,0,0,1-3.04.758c-4.283,0-7.846-4.315-8.585-10.007a8.33,8.33,0,0,0,2.142-2.307c2.511-4.047,6.374-6.648,10.765-6.648s8.216,2.549,10.727,6.571a8.286,8.286,0,0,0,7.113,3.913h.115C408.579,92.515,411.53,95.25,413,99.227Z" transform="translate(-192.253 -66.142)"/><path class="n" d="M426,72.329l-6.922,4.391,4.2-7.648a6.845,6.845,0,0,0-4.187-1.491h-.108a8.214,8.214,0,0,1-1.434-.108L415.2,68.964l1.007-1.829a8.406,8.406,0,0,1-4.1-3.091l-4.213,2.632,2.651-4.825a12.286,12.286,0,0,0-9.407-4.761c-4.366,0-8.286,2.6-10.771,6.648a8.043,8.043,0,0,1-7.119,3.824h-.21c-4.818,0-8.732,5.462-8.732,12.212s3.913,12.205,8.732,12.205a6.552,6.552,0,0,0,3.04-.758,12.569,12.569,0,0,1,10.567-.2,11.071,11.071,0,0,0,8.987,0,12.588,12.588,0,0,1,10.472.2,6.6,6.6,0,0,0,3.008.739c4.825,0,8.732-5.462,8.732-12.205A15.526,15.526,0,0,0,426,72.329Z" transform="translate(-192.239 -57.09)"/><path class="o" d="M836.62,138.209a12.9,12.9,0,0,1,7.483.816,11.02,11.02,0,0,0,8.981,0,12.594,12.594,0,0,1,10.567.21,6.571,6.571,0,0,0,3.04.758c4.283,0,7.852-4.315,8.592-10.007a8.243,8.243,0,0,1-2.142-2.307c-2.5-4.06-6.405-6.68-10.784-6.68s-8.209,2.549-10.72,6.571a8.286,8.286,0,0,1-7.126,3.932H844.4C841.011,131.5,838.054,134.232,836.62,138.209Z" transform="translate(-359.896 -80.266)"/><path class="n" d="M815.117,111.347l6.922,4.379-4.207-7.648a6.858,6.858,0,0,1,4.188-1.491h.115a8.285,8.285,0,0,0,1.434-.108l2.346,1.491-1.007-1.829a8.42,8.42,0,0,0,4.143-3.078l4.2,2.664-2.658-4.825a12.249,12.249,0,0,1,9.414-4.761c4.366,0,8.286,2.6,10.771,6.648a8.037,8.037,0,0,0,7.119,3.824h.229c4.825,0,8.732,5.462,8.732,12.212s-3.907,12.205-8.732,12.205a6.59,6.59,0,0,1-3.04-.758,12.569,12.569,0,0,0-10.568-.2,11.058,11.058,0,0,1-8.98,0,12.6,12.6,0,0,0-10.478.2,6.577,6.577,0,0,1-3.008.739c-4.818,0-8.732-5.462-8.732-12.205a15.526,15.526,0,0,1,1.8-7.457Z" transform="translate(-351.445 -71.251)"/><path class="m" d="M177.573,233.557a18.483,18.483,0,0,0-10.689,1.16,15.749,15.749,0,0,1-12.836-.032,17.986,17.986,0,0,0-15.093.3,9.4,9.4,0,0,1-4.347,1.084c-6.119,0-11.211-6.163-12.269-14.3a11.733,11.733,0,0,0,3.059-3.3c3.588-5.781,9.146-9.5,15.386-9.5s11.727,3.671,15.3,9.388a11.8,11.8,0,0,0,10.2,5.59h.159C171.27,223.952,175.489,227.859,177.573,233.557Z" transform="translate(-100.867 -112.172)"/><path class="n" d="M196.148,195.106l-9.892,6.272,6-10.918a9.777,9.777,0,0,0-5.985-2.135h-.159a11.573,11.573,0,0,1-2.052-.153l-3.34,2.161,1.44-2.613a11.919,11.919,0,0,1-5.864-4.462l-6,3.824,3.78-6.947c-3.512-4.213-8.241-6.794-13.442-6.794-6.24,0-11.8,3.709-15.386,9.49a11.5,11.5,0,0,1-10.2,5.488h-.338c-6.89,0-12.473,7.808-12.473,17.445s5.583,17.445,12.473,17.445a9.312,9.312,0,0,0,4.347-1.09,17.986,17.986,0,0,1,15.093-.293,15.749,15.749,0,0,0,12.836.032,18.005,18.005,0,0,1,14.965.287,9.338,9.338,0,0,0,4.3,1.064c6.89,0,12.473-7.814,12.473-17.445A22.156,22.156,0,0,0,196.148,195.106Z" transform="translate(-100.831 -99.247)"/><path class="p" d="M490.821,632.053,377.25,630.593l.338-2.913,5.488-48.05h99.74l7.336,48.05.561,3.646Z" transform="translate(-136.807 -210.198)"/><path class="k" d="M490.713,658.666H434.039l-56.789-.733.338-2.913H490.152Z" transform="translate(-136.807 -237.538)"/><rect class="p" width="150.703" height="3.639" transform="translate(221.514 418.215)"/><path class="i" d="M648.046,178.509A9.478,9.478,0,0,0,638.613,169H217.753a9.478,9.478,0,0,0-9.433,9.522v255.1H648.046Z" transform="translate(-132.047 -97.673)"/><path class="p" d="M208.32,580.19v29.88a9.433,9.433,0,0,0,9.433,9.433h420.86a9.433,9.433,0,0,0,9.433-9.433V580.19Z" transform="translate(-132.047 -246.788)"/><rect class="q" width="405.506" height="229.328" transform="translate(94.476 87.324)"/><path class="i" d="M551.126,612.891a9.816,9.816,0,0,0,7.731-3.754h0a10.216,10.216,0,0,0,.765-1.122l-5.4-.912,5.832.038a9.829,9.829,0,0,0,.185-7.782l-7.82,4.054,7.215-5.3a9.828,9.828,0,1,0-16.234,11h0A9.816,9.816,0,0,0,551.126,612.891Z" transform="translate(-252.804 -251.515)"/><path class="k" d="M483.48,584.77l45.31,45.507-6.954-45.507Z" transform="translate(-175.33 -212.062)"/><rect class="r" width="405.946" height="13.397" transform="translate(94.157 87.35)"/><rect class="s" width="122.309" height="8.152" rx="0.58" transform="translate(235.102 89.683)"/><path class="i" d="M641.073,203.2h-.3l-.108-.1a2.478,2.478,0,0,0,.574-1.587,2.409,2.409,0,1,0-2.4,2.428,2.486,2.486,0,0,0,1.587-.58l.108.1v.3l1.867,1.867.555-.561Zm-2.237,0a1.67,1.67,0,1,1,1.19-.491,1.683,1.683,0,0,1-1.19.491Z" transform="translate(-287.295 -108.6)"/><circle class="t" cx="2.454" cy="2.454" r="2.454" transform="translate(99.001 91.595)"/><circle class="u" cx="2.454" cy="2.454" r="2.454" transform="translate(105.75 91.595)"/><circle class="v" cx="2.454" cy="2.454" r="2.454" transform="translate(112.506 91.595)"/><g transform="translate(185 126)"><path class="w" d="M467.167,324.894c-18.241,0-31.338,11.7-31.338,39.01,0,30.948,13.1,39.14,31.338,39.14s32.118-8.972,32.118-39.14C499.285,331.656,485.408,324.894,467.167,324.894Zm.12,67.878c-12.634,0-19.235-7.412-19.235-28.848,0-18.914,6.871-28.888,19.505-28.888s19.505,6.552,19.505,28.888C487.062,384.819,479.921,392.772,467.287,392.772Z" transform="translate(-356.709 -289.447)"/><path class="x" d="M174.423,392.856h-7.542V370.647a4.448,4.448,0,0,0-4.448-4.448h-1.767a4.448,4.448,0,0,0-4.448,4.448v22.209H134.945a2.539,2.539,0,0,1-2.245-3.725l22.515-42.615a4.448,4.448,0,0,0-2.033-6.1l-1.329-.628a4.448,4.448,0,0,0-5.822,1.925l-27.461,51.37a6.031,6.031,0,0,0-.712,2.843h0a6.031,6.031,0,0,0,6.031,6.031h32.329V416a5.331,5.331,0,0,0,5.331,5.331h0A5.331,5.331,0,0,0,166.881,416V401.959h7.542a4.551,4.551,0,0,0,4.551-4.551h0a4.551,4.551,0,0,0-4.551-4.551Z" transform="translate(-106.226 -300.845)"/><path class="x" d="M832.42,392.856h-7.542V370.647a4.448,4.448,0,0,0-4.448-4.448h-1.767a4.448,4.448,0,0,0-4.448,4.448v22.209H792.942a2.539,2.539,0,0,1-2.245-3.725l22.515-42.615a4.448,4.448,0,0,0-2.033-6.1l-1.329-.628a4.448,4.448,0,0,0-5.822,1.925l-27.461,51.37a6.031,6.031,0,0,0-.712,2.843h0a6.031,6.031,0,0,0,6.031,6.031h32.329V416a5.331,5.331,0,0,0,5.331,5.331h0A5.331,5.331,0,0,0,824.878,416V401.959h7.542a4.551,4.551,0,0,0,4.551-4.551h0A4.551,4.551,0,0,0,832.42,392.856Z" transform="translate(-624.566 -300.845)"/><ellipse class="w" cx="3.608" cy="4.669" rx="3.608" ry="4.669" transform="translate(98.471 63.061)"/><ellipse class="w" cx="3.608" cy="4.669" rx="3.608" ry="4.669" transform="translate(118.103 63.167)"/><path class="w" d="M574.659,528.32c0,2.11-2.946,3.82-6.58,3.82s-6.58-1.711-6.58-3.82c0-1.827,2.209-3.356,5.162-3.729a10.63,10.63,0,0,1,1.418-.091,10.755,10.755,0,0,1,2.362.255C572.908,525.3,574.659,526.694,574.659,528.32Z" transform="translate(-455.707 -446.688)"/><ellipse class="y" cx="3.608" cy="4.669" rx="3.608" ry="4.669" transform="translate(99.32 62)"/><ellipse class="y" cx="3.608" cy="4.669" rx="3.608" ry="4.669" transform="translate(118.952 62.106)"/><ellipse class="y" cx="6.58" cy="3.82" rx="6.58" ry="3.82" transform="translate(106.642 76.751)"/><path class="q" d="M589.031,524.679a1.048,1.048,0,0,1-.28.72.921.921,0,0,1-.675.3h-2.122a.99.99,0,0,1-.955-1.019,1.04,1.04,0,0,1,.174-.582,9.989,9.989,0,0,1,1.418-.1,10.12,10.12,0,0,1,2.362.272A1.075,1.075,0,0,1,589.031,524.679Z" transform="translate(-474.218 -446.294)"/><circle class="q" cx="1.061" cy="1.061" r="1.061" transform="translate(101.866 64.335)"/><circle class="q" cx="1.061" cy="1.061" r="1.061" transform="translate(121.605 64.335)"/><circle class="z" cx="1.061" cy="1.061" r="1.061" transform="translate(122.666 74.31)"/><circle class="z" cx="1.061" cy="1.061" r="1.061" transform="translate(96.773 74.31)"/></g></g></svg>