<?xml version="1.0" standalone="no"?>
<!DOCTYPE svg PUBLIC "-//W3C//DTD SVG 20010904//EN"
 "http://www.w3.org/TR/2001/REC-SVG-20010904/DTD/svg10.dtd">
<svg version="1.0" xmlns="http://www.w3.org/2000/svg"
 width="440.000000pt" height="453.000000pt" viewBox="0 0 440.000000 453.000000"
 preserveAspectRatio="xMidYMid meet">

<g transform="translate(0.000000,453.000000) scale(0.100000,-0.100000)"
fill="#000000" stroke="none">
<path d="M1872 4120 c17 -27 30 -30 37 -8 2 7 0 10 -4 5 -5 -4 -18 1 -29 10
-20 18 -20 18 -4 -7z"/>
<path d="M1940 4115 c0 -15 6 -25 14 -25 24 0 26 15 5 33 -18 16 -19 16 -19
-8z"/>
<path d="M1834 4106 c5 -16 2 -17 -21 -12 l-28 7 23 -17 c29 -20 50 -6 32 23
-11 17 -11 17 -6 -1z"/>
<path d="M1615 4100 c3 -5 8 -10 11 -10 2 0 4 5 4 10 0 6 -5 10 -11 10 -5 0
-7 -4 -4 -10z"/>
<path d="M1664 4095 c3 -11 7 -35 11 -52 9 -43 27 -42 48 2 9 20 27 40 39 45
15 6 17 9 7 9 -9 1 -24 -8 -34 -19 -22 -24 -35 -26 -35 -5 0 8 -6 15 -14 15
-8 0 -17 6 -20 13 -3 6 -4 3 -2 -8z"/>
<path d="M1558 4062 c9 -21 20 -39 25 -40 19 -5 25 0 29 28 4 25 0 31 -25 40
-45 15 -47 13 -29 -28z"/>
<path d="M2000 4085 c-17 -20 0 -41 24 -28 14 7 14 12 3 27 -12 16 -14 17 -27
1z"/>
<path d="M2190 4063 c11 -24 27 -43 35 -43 13 0 13 2 -1 18 -8 9 -24 28 -34
42 -19 24 -19 23 0 -17z"/>
<path d="M2307 4069 c-11 -39 -8 -59 8 -59 16 0 19 31 6 64 -7 18 -8 18 -14
-5z"/>
<path d="M1475 4066 c-16 -6 -31 -11 -33 -12 -8 -5 31 -54 43 -54 7 0 15 16
17 38 3 20 5 37 4 38 -1 0 -14 -4 -31 -10z"/>
<path d="M1780 4036 c0 -25 5 -48 12 -52 13 -8 42 27 30 35 -5 3 -12 18 -16
34 -10 42 -26 32 -26 -17z"/>
<path d="M2614 4065 c-4 -9 -1 -22 6 -28 10 -9 11 -9 5 2 -6 11 -4 13 7 8 11
-4 15 0 14 11 -4 22 -25 27 -32 7z"/>
<path d="M1860 4056 c0 -2 7 -7 16 -10 8 -3 12 -2 9 4 -6 10 -25 14 -25 6z"/>
<path d="M1390 4039 c0 -5 -4 -8 -9 -5 -5 3 -21 0 -35 -7 l-25 -14 27 -26 c40
-39 52 -35 52 18 0 25 -2 45 -5 45 -3 0 -5 -5 -5 -11z"/>
<path d="M2660 4041 c0 -6 -10 -16 -22 -21 -16 -6 -18 -9 -7 -9 19 -1 45 26
35 36 -3 3 -6 1 -6 -6z"/>
<path d="M2043 4030 c-13 -5 -23 -16 -23 -25 0 -19 19 -20 26 0 8 20 20 19 57
-6 l32 -21 -34 31 c-18 17 -34 31 -35 30 0 0 -11 -4 -23 -9z"/>
<path d="M2140 4035 c0 -5 5 -17 10 -25 5 -8 10 -10 10 -5 0 6 -5 17 -10 25
-5 8 -10 11 -10 5z"/>
<path d="M2696 4010 c-18 -32 -51 -45 -90 -38 -21 4 -23 2 -16 -21 4 -14 13
-39 19 -54 15 -37 -9 -47 -45 -18 -15 12 -33 21 -40 21 -8 0 -14 6 -14 14 0
12 -7 12 -40 -2 -30 -13 -40 -23 -40 -39 0 -17 6 -23 21 -23 11 0 18 4 15 9
-5 7 14 21 28 21 3 0 5 -15 9 -55 2 -29 1 -30 -40 -28 -57 2 -66 -22 -21 -58
28 -23 30 -29 19 -43 -18 -21 -27 -20 -62 5 -26 18 -28 22 -15 42 21 32 28 80
17 108 l-10 24 0 -28 c-2 -68 -45 -124 -104 -134 -64 -10 -106 4 -129 44 -20
34 -22 34 -32 14 -7 -12 -22 -28 -33 -36 -35 -24 -19 -46 28 -39 35 6 39 4 49
-20 5 -14 15 -26 21 -26 8 0 10 -18 5 -64 -5 -50 -3 -66 9 -76 16 -13 50 -6
40 9 -3 6 3 15 13 20 11 6 22 24 26 42 7 39 20 35 51 -17 l24 -41 -26 -52
c-25 -47 -26 -53 -11 -68 15 -14 20 -14 55 0 21 9 30 16 21 16 -14 1 -15 6 -6
37 8 32 7 41 -13 67 l-22 30 23 17 c19 15 21 22 15 58 -4 23 -4 42 -1 42 20 0
71 -44 83 -71 12 -29 16 -31 48 -26 34 6 35 5 20 -15 -8 -13 -11 -26 -6 -32 5
-6 12 -21 15 -33 6 -20 4 -21 -33 -16 -37 5 -39 4 -46 -26 -4 -17 -12 -31 -18
-31 -8 0 -7 -4 1 -12 18 -18 15 -25 -30 -74 -54 -59 -46 -77 38 -84 55 -5 59
-7 59 -30 0 -20 -8 -27 -40 -38 -44 -14 -55 -26 -55 -59 0 -16 8 -24 28 -29
54 -13 83 -34 80 -57 -3 -19 -11 -23 -58 -27 -49 -5 -56 -8 -65 -34 -8 -24 -7
-31 10 -40 34 -19 77 -66 72 -79 -4 -13 -16 -13 -87 -2 -42 7 -47 5 -59 -18
-13 -24 -11 -29 18 -68 52 -71 38 -94 -33 -54 -56 31 -71 31 -91 2 -13 -21
-13 -28 1 -71 9 -26 14 -50 10 -53 -10 -10 -65 19 -81 43 -34 52 -85 19 -85
-56 0 -48 0 -48 -27 -41 -18 5 -34 20 -44 41 -16 33 -43 51 -65 43 -7 -2 -17
-24 -24 -49 -10 -34 -17 -44 -34 -44 -34 0 -44 13 -48 60 -3 40 -6 45 -29 48
-21 2 -31 -4 -48 -32 -18 -29 -26 -34 -52 -31 -16 2 -36 11 -45 20 -8 8 -20
15 -25 15 -5 0 -9 5 -9 11 0 7 10 9 24 7 20 -4 25 0 30 25 10 49 -34 78 -64
41 -28 -32 -51 -37 -71 -15 -11 12 -17 26 -14 32 4 5 1 16 -5 24 -10 12 -7 17
14 25 29 11 34 31 11 50 -12 10 -24 11 -52 2 -29 -9 -39 -8 -47 3 -19 24 -34
21 -60 -14 -24 -32 -25 -36 -10 -52 15 -16 18 -16 61 -1 43 16 45 16 59 -2 21
-29 18 -35 -31 -56 -36 -16 -45 -24 -45 -45 0 -21 5 -25 29 -25 16 0 41 -4 54
-9 19 -8 23 -15 20 -35 -5 -24 -9 -26 -59 -26 -73 0 -82 -21 -29 -67 37 -32
37 -33 21 -58 -18 -27 -21 -27 -73 12 l-32 23 20 34 c21 36 28 121 12 149 -5
10 -8 0 -9 -31 -1 -95 -52 -153 -145 -167 -36 -5 -57 -2 -91 13 -42 18 -98 72
-98 94 0 6 -3 9 -6 6 -11 -11 36 -86 72 -116 20 -17 52 -33 71 -37 30 -5 34
-9 29 -28 -3 -12 -6 -30 -6 -39 0 -14 -8 -18 -35 -18 l-35 0 3 47 c2 40 -1 48
-17 51 -13 3 -29 -7 -46 -28 l-26 -31 -26 24 c-15 14 -29 22 -32 20 -7 -7 -36
16 -36 28 0 5 9 9 19 9 11 0 23 5 26 10 5 8 11 8 20 0 9 -8 14 -6 19 5 14 36
-15 56 -53 35 -10 -5 -39 -11 -64 -14 -35 -3 -50 0 -61 13 -15 16 -14 20 9 41
14 13 25 30 25 38 0 11 12 13 50 10 46 -3 50 -1 48 17 -2 16 -14 21 -57 28
-63 9 -83 -2 -63 -33 13 -21 3 -27 -15 -9 -16 16 -53 -7 -54 -34 l0 -22 -11
23 c-13 26 -68 32 -68 7 0 -8 -5 -15 -11 -15 -6 0 -8 8 -4 19 8 27 -21 48 -45
33 -23 -14 -36 1 -15 18 11 9 12 17 4 31 -10 19 -49 27 -49 10 0 -16 21 -65
29 -71 5 -3 20 -23 35 -44 27 -40 35 -101 17 -135 -7 -13 -2 -22 24 -40 46
-31 65 -18 28 21 -25 27 -26 31 -11 42 9 6 18 23 20 36 3 22 8 24 51 25 42 0
49 -3 60 -27 9 -22 19 -28 44 -28 22 0 33 -5 33 -15 0 -20 102 -95 131 -95 24
-1 24 -1 4 -16 -15 -11 -36 -14 -79 -12 -53 4 -62 8 -92 41 -19 20 -34 34 -34
31 0 -15 33 -65 52 -78 12 -9 17 -16 10 -16 -7 0 -23 -11 -35 -25 -20 -22 -24
-23 -40 -10 -18 13 -18 15 -1 44 26 44 9 59 -45 41 -22 -7 -39 -16 -38 -19 2
-11 -27 -81 -34 -81 -4 0 -9 -9 -12 -20 -6 -25 34 -55 52 -37 8 8 14 8 23 -1
12 -12 10 -13 -14 -16 -14 -1 -20 -37 -9 -55 13 -21 44 -5 36 18 -4 13 0 20
16 24 13 4 18 10 13 18 -5 9 -2 10 9 6 11 -4 17 -1 17 8 0 8 6 15 13 15 8 0
22 9 32 20 10 11 22 17 26 14 5 -3 9 7 9 21 0 25 3 27 27 20 36 -9 34 -6 27
-44 -6 -27 -10 -32 -28 -26 -41 12 -50 10 -60 -17 -18 -52 44 -89 86 -51 16
15 18 15 18 0 0 -22 -34 -39 -65 -31 -22 5 -25 3 -25 -20 0 -29 10 -32 40 -14
25 16 38 3 22 -22 -18 -29 -15 -40 12 -40 33 0 41 16 22 45 -18 28 -20 35 -7
35 13 0 42 -60 35 -71 -3 -5 7 -4 23 3 80 34 83 75 9 99 -76 24 -73 59 5 59
40 0 54 11 64 53 5 19 12 26 21 23 8 -3 20 -9 28 -12 10 -4 24 8 40 34 29 47
48 61 54 43 3 -8 12 -21 21 -30 16 -15 15 -20 -8 -71 -30 -67 -37 -133 -21
-199 7 -28 14 -51 16 -51 3 0 16 7 29 16 20 13 23 20 14 35 -8 15 -6 19 8 19
10 0 28 7 40 15 18 13 22 13 26 1 3 -8 14 -12 24 -10 15 4 18 13 15 44 -2 22
-7 38 -11 37 -14 -4 -132 26 -138 36 -13 21 22 24 87 7 l68 -18 22 30 22 29
-28 54 c-29 54 -28 79 1 55 9 -8 25 -31 36 -52 17 -32 24 -38 53 -38 32 0 33
2 46 58 17 79 27 97 46 81 16 -13 13 -41 -11 -111 -12 -35 -11 -37 16 -57 l29
-21 60 30 c63 32 94 38 88 18 -6 -18 -89 -66 -114 -67 -19 -1 -20 -6 -16 -55
3 -40 0 -60 -14 -81 -20 -31 -69 -55 -111 -55 -30 0 -90 32 -110 59 -11 14
-12 14 -13 1 0 -20 -124 -82 -146 -73 -12 4 -8 -7 14 -39 32 -47 113 -109 141
-107 9 0 11 3 5 5 -15 6 -6 41 11 48 8 3 17 21 21 40 6 36 21 45 41 25 12 -12
-14 -119 -29 -119 -5 0 -6 -5 -3 -10 17 -28 195 0 195 30 0 6 4 9 8 6 17 -10
74 29 106 73 39 54 60 108 42 108 -6 0 -35 5 -63 12 -40 10 -53 17 -53 31 0
18 2 18 66 1 79 -22 80 -22 70 85 -7 77 -6 80 23 65 9 -5 23 -6 31 -1 10 6 19
-2 32 -30 20 -40 48 -60 48 -35 0 8 -11 22 -25 31 -32 21 -32 34 1 34 14 0 23
4 19 10 -3 6 3 10 14 10 12 0 21 -5 21 -11 0 -6 12 -1 26 10 15 12 35 21 45
21 13 0 19 7 19 21 0 15 5 20 23 17 16 -2 23 3 25 19 2 12 12 25 23 28 13 4
19 15 19 36 0 34 23 39 42 9 17 -26 45 -26 53 1 5 14 13 19 26 16 14 -4 19 0
19 14 0 15 -7 19 -34 19 -53 0 -66 9 -66 42 l0 30 56 -4 c47 -4 57 -2 66 15
11 21 -4 39 -56 68 -16 10 -18 9 -13 -10 3 -14 0 -21 -9 -21 -19 0 -18 7 12
57 l25 43 43 -30 c66 -48 97 -21 60 52 -15 30 -15 32 2 45 29 21 46 12 62 -35
12 -38 17 -43 40 -40 24 3 28 9 35 56 8 52 17 59 51 46 13 -5 15 -16 10 -59
-6 -48 -4 -54 14 -59 16 -6 30 2 58 34 l37 41 21 -21 c15 -14 18 -24 11 -34
-45 -60 -46 -65 -36 -85 10 -17 15 -19 35 -9 14 6 27 19 29 30 4 15 11 18 26
13 25 -8 39 18 22 39 -15 18 -2 27 20 15 25 -13 36 13 20 44 -11 21 -11 20 -6
-5 3 -16 1 -28 -5 -28 -5 0 -10 15 -10 34 0 27 -10 43 -51 83 -29 29 -48 56
-45 62 11 18 44 13 56 -9 12 -23 33 -26 52 -6 8 7 28 17 46 21 31 6 31 7 28
64 -3 64 8 106 25 96 6 -4 3 7 -5 24 -20 38 -5 41 23 4 12 -16 20 -21 19 -13
-2 12 6 14 40 12 54 -3 49 7 -15 32 -45 17 -49 21 -46 50 1 17 0 22 -3 11 -12
-40 -36 -57 -74 -51 -32 5 -34 4 -16 -9 11 -8 23 -15 26 -15 4 0 5 -13 2 -30
-2 -16 -10 -30 -18 -30 -10 0 -12 8 -7 30 7 36 -14 41 -42 10 -18 -20 -65 -28
-65 -10 0 5 16 17 35 26 19 9 35 22 35 28 0 6 10 12 23 13 12 1 28 11 36 23 7
11 20 20 28 20 25 0 8 25 -24 34 -17 5 -36 20 -42 33 -15 34 -14 40 4 17 14
-17 15 -16 1 12 -14 28 -14 33 -1 44 8 7 22 10 30 6 9 -3 15 0 15 9 0 8 4 15
10 15 5 0 9 -21 7 -46 -1 -26 3 -49 8 -51 6 -2 11 9 10 23 0 33 24 49 59 40
23 -6 26 -9 16 -21 -10 -12 -10 -15 0 -15 10 0 10 -3 0 -15 -14 -17 -3 -20 20
-5 9 6 20 5 29 -3 10 -8 8 -1 -5 21 -23 41 -84 79 -141 88 -32 5 -53 1 -96
-19 -49 -22 -97 -69 -97 -95 0 -12 -29 -24 -41 -16 -14 8 -11 23 11 46 10 11
26 35 35 54 8 18 21 34 27 36 13 5 -74 98 -90 98 -11 0 -71 -59 -90 -87 -28
-43 -39 -28 -38 49 1 49 -3 73 -11 75 -7 3 -13 9 -13 13 0 13 51 65 61 62 5
-1 9 7 9 19 0 16 4 19 23 13 30 -9 30 -9 22 -34 -5 -17 -13 -21 -31 -17 -30 5
-32 -15 -5 -44 28 -30 54 -21 65 24 5 20 13 37 17 37 4 0 17 -13 29 -30 37
-51 77 -31 60 30 -13 47 1 60 41 37 17 -9 35 -15 40 -11 15 9 10 61 -7 75 -14
11 -11 14 23 24 33 9 38 15 41 43 2 17 8 32 15 32 7 0 7 4 -2 13 -10 10 -18 6
-39 -19 -33 -38 -51 -45 -72 -27 -18 15 -16 74 2 70 5 -1 15 6 21 15 9 14 8
21 -4 33 -14 15 -20 15 -58 -1 -44 -17 -54 -14 -65 22 -6 19 0 25 39 40 33 14
45 24 45 40 0 24 -17 34 -58 34 -36 0 -54 13 -47 32 4 11 -1 18 -15 23 -15 5
-19 12 -15 25 10 31 -10 31 -29 0z m14 -80 c0 -20 -5 -30 -15 -30 -21 0 -30
27 -15 45 19 23 30 18 30 -15z m104 -25 c-4 -8 -11 -15 -16 -15 -6 0 -5 6 2
15 7 8 14 15 16 15 2 0 1 -7 -2 -15z m-49 -181 c8 -11 15 -14 15 -6 0 7 13 12
30 12 25 0 30 -4 30 -24 0 -48 -22 -88 -56 -102 -55 -23 -118 -18 -153 12 -17
14 -31 31 -31 37 0 6 6 3 13 -8 11 -14 16 -15 22 -5 5 9 4 11 -3 6 -7 -4 -12
-2 -12 3 0 11 15 14 65 13 24 0 26 2 12 9 -23 13 -21 45 4 62 26 19 45 16 64
-9z m-405 -65 c11 -26 11 -32 -1 -40 -23 -15 -42 -6 -52 25 -7 21 -6 30 4 37
24 15 36 10 49 -22z m-112 -16 c4 -41 -19 -45 -36 -8 -17 37 -15 47 11 43 17
-2 23 -11 25 -35z m336 -19 c3 -8 2 -12 -4 -9 -6 3 -10 10 -10 16 0 14 7 11
14 -7z m333 -44 c-3 -23 -41 -23 -61 -1 -14 16 -15 22 -5 39 13 20 13 20 41
-1 15 -12 26 -29 25 -37z m-308 6 c10 -12 9 -20 -5 -41 -16 -24 -18 -25 -35
-9 -17 15 -17 18 -1 40 20 28 26 29 41 10z m204 -48 c11 -40 -23 -55 -43 -19
-15 29 -13 32 31 40 4 0 9 -9 12 -21z m93 -295 c17 -23 17 -33 0 -33 -8 0 -17
7 -20 16 -14 36 -2 46 20 17z m-114 -238 c2 -16 15 -22 66 -29 61 -9 62 -10
62 -42 0 -61 -6 -65 -72 -58 -46 5 -62 4 -69 -7 -5 -9 -9 22 -9 81 0 56 4 90
9 85 5 -6 11 -19 13 -30z m-86 -67 c-4 -35 -8 -74 -10 -88 -3 -14 -5 -28 -5
-31 -2 -15 -66 -69 -82 -69 -9 0 -33 -7 -53 -15 -19 -8 -54 -16 -77 -17 -33
-1 -45 3 -60 23 -31 41 -25 51 26 43 34 -5 51 -2 70 10 28 18 35 66 10 66 -20
0 -19 19 1 27 8 3 13 12 10 19 -3 7 5 20 17 29 28 20 38 19 31 -2 -5 -16 -4
-16 5 -2 6 10 33 25 61 35 27 10 50 22 50 26 0 4 3 8 6 8 4 0 3 -28 0 -62z
m147 -198 c5 -4 1 -15 -8 -24 -11 -11 -12 -16 -4 -16 7 0 9 -3 5 -7 -16 -16
-72 -8 -103 14 l-32 24 22 43 22 43 45 -35 c25 -20 49 -39 53 -42z m-393 -125
c0 -19 -19 -19 -44 0 -19 14 -18 15 12 15 22 0 32 -5 32 -15z m-830 -31 c0 -8
9 -14 20 -14 12 0 24 -9 29 -23 22 -58 73 -59 112 -2 30 43 39 44 39 2 0 -32
20 -71 50 -94 18 -15 31 -17 27 -4 -1 4 9 17 22 28 13 11 25 32 27 47 4 38 10
42 32 23 10 -10 22 -17 27 -17 12 0 34 -33 35 -51 0 -23 -26 -31 -44 -14 -13
13 -15 13 -21 -6 -4 -11 -18 -25 -31 -31 -28 -13 -32 -28 -6 -29 12 0 10 -3
-8 -10 -35 -14 -64 -4 -112 39 -28 25 -38 30 -30 15 17 -30 90 -91 116 -95
l21 -3 -21 -21 c-20 -20 -36 -49 -38 -68 -2 -20 -22 -15 -23 5 -3 31 -21 47
-29 26 -11 -29 -34 -20 -34 13 0 30 0 30 -24 15 -28 -19 -42 -6 -27 23 13 25
4 34 -21 21 -29 -15 -42 -1 -24 27 21 31 20 35 -8 28 -29 -7 -46 14 -22 28 25
14 20 38 -9 38 -30 0 -33 20 -5 27 23 6 27 33 6 33 -8 0 -22 8 -32 17 -15 16
-16 15 -9 -15 6 -28 4 -32 -14 -32 -24 0 -28 -28 -10 -62 9 -18 8 -24 -7 -35
-15 -11 -22 -9 -49 20 -18 17 -43 40 -56 49 l-24 17 37 -5 c20 -2 48 0 62 6
22 8 26 16 26 49 0 28 5 43 17 50 21 11 33 6 33 -15z m546 6 c8 0 14 -4 14 -9
0 -12 69 -81 81 -81 5 0 9 -7 9 -16 0 -11 -6 -15 -20 -11 -27 7 -36 -10 -17
-31 15 -16 12 -17 -47 -18 l-63 0 14 35 c10 23 14 56 11 96 -3 33 -3 54 0 47
2 -6 10 -12 18 -12z m-39 -62 c-2 -13 -4 -3 -4 22 0 25 2 35 4 23 2 -13 2 -33
0 -45z m213 -23 c0 -8 -7 -15 -15 -15 -9 0 -12 6 -9 15 4 8 10 15 15 15 5 0 9
-7 9 -15z m-260 -75 c-20 -13 -33 -13 -25 0 3 6 14 10 23 10 15 0 15 -2 2 -10z
m-735 -96 c-30 -22 -44 -17 -60 22 -20 48 -20 48 13 60 25 10 28 8 47 -29 20
-38 20 -39 0 -53z m-235 -93 c6 -17 9 -35 5 -40 -12 -20 -42 -11 -53 14 -19
40 -16 46 29 54 4 0 12 -12 19 -28z m-258 -35 c11 -17 3 -18 -41 0 -40 16 -48
24 -35 37 8 7 66 -21 76 -37z m213 -34 c-3 -3 -11 0 -18 7 -9 10 -8 11 6 5 10
-3 15 -9 12 -12z m405 -287 c0 -18 -32 -29 -41 -13 -9 15 -1 31 12 23 5 -4 9
-1 9 5 0 6 5 8 10 5 6 -3 10 -12 10 -20z m244 3 c8 -13 17 -33 20 -45 6 -17 3
-20 -12 -16 -20 5 -42 42 -42 68 0 22 18 18 34 -7z m-127 -100 c-3 -7 -5 -2
-5 12 0 14 2 19 5 13 2 -7 2 -19 0 -25z"/>
<path d="M1883 3985 c-12 -53 3 -66 36 -31 24 25 27 46 9 64 -22 22 -35 13
-45 -33z"/>
<path d="M2400 4000 c-20 -29 -21 -33 -7 -47 14 -14 17 -12 31 16 11 21 14 37
8 47 -8 14 -13 11 -32 -16z"/>
<path d="M1212 3955 c-89 -54 -113 -72 -180 -137 l-52 -51 23 -31 c32 -40 40
-41 73 -11 15 14 34 23 42 20 12 -4 14 3 9 36 -8 60 8 74 63 55 52 -18 60 -4
29 48 -30 51 -14 67 37 37 54 -32 67 -23 48 34 -9 25 -17 45 -17 45 -1 0 -35
-20 -75 -45z"/>
<path d="M1991 3992 c-1 -8 -6 -10 -13 -6 -9 6 -9 3 0 -9 12 -14 11 -21 -2
-48 -31 -61 -17 -74 40 -38 57 35 73 2 28 -57 -31 -41 -21 -48 46 -35 38 8 42
10 22 16 -17 6 -21 13 -16 27 3 10 0 25 -6 33 -9 10 -8 19 1 36 10 19 9 25 -9
40 -12 9 -31 14 -45 12 -17 -3 -26 1 -34 19 -7 13 -12 17 -12 10z"/>
<path d="M2212 3887 c-12 -13 -22 -32 -22 -44 0 -22 29 -53 51 -53 11 0 12 2
1 9 -8 4 -12 19 -10 32 2 20 9 24 41 24 42 0 48 16 15 39 -31 22 -51 20 -76
-7z"/>
<path d="M2930 3817 c0 -17 34 -58 64 -76 17 -10 49 -21 71 -24 39 -6 39 -6
15 8 -16 9 -19 15 -10 15 8 1 -7 7 -33 14 -26 7 -61 26 -77 41 -17 16 -30 25
-30 22z"/>
<path d="M1171 3788 c-1 -15 4 -30 10 -33 17 -11 18 -2 4 30 l-13 30 -1 -27z"/>
<path d="M1341 3788 c-21 -32 -20 -56 0 -80 10 -11 16 -25 13 -29 -7 -13 -14
-11 -11 2 1 6 -4 14 -12 17 -8 3 -11 0 -7 -7 5 -8 0 -8 -19 -1 -38 14 -150 12
-189 -4 -76 -32 -139 -112 -152 -194 -9 -60 12 -143 47 -183 24 -27 27 -28 14
-7 -22 35 -15 44 45 58 36 9 50 17 50 29 0 28 -7 29 -73 15 -34 -7 -63 -11
-64 -10 -6 6 10 66 17 66 4 0 13 -7 20 -15 18 -22 90 -1 90 27 0 5 -25 20 -55
34 -58 27 -75 52 -27 39 44 -11 112 -18 112 -10 0 16 -22 45 -30 40 -12 -7
-50 12 -50 25 0 6 9 10 20 10 12 0 17 5 14 14 -9 23 14 28 29 6 14 -20 14 -20
25 5 9 19 19 25 42 25 16 0 30 5 30 11 0 5 5 7 10 4 6 -4 10 -31 8 -62 -4 -73
17 -84 27 -13 5 39 11 50 25 50 29 0 50 -11 50 -27 0 -8 5 -11 11 -8 6 4 -6
-15 -25 -43 -38 -53 -39 -82 -3 -82 11 0 17 3 14 7 -8 7 11 33 24 33 5 0 9 -7
9 -15 0 -8 7 -15 15 -15 13 0 13 3 -1 26 -15 22 -15 27 -3 40 13 12 18 12 37
-6 12 -12 22 -31 22 -44 0 -20 -8 -24 -62 -37 -50 -11 -64 -19 -66 -35 -2 -14
5 -24 23 -32 15 -7 24 -8 20 -2 -7 11 3 16 58 25 36 6 37 5 37 -24 0 -23 4
-28 19 -24 11 3 21 -2 25 -12 4 -11 2 -14 -6 -9 -15 9 -71 10 -85 1 -6 -4 -32
2 -57 13 -41 17 -46 23 -46 52 0 18 -5 40 -10 48 -7 11 -10 6 -10 -22 0 -59
-47 -90 -105 -68 -29 11 -29 11 -10 -9 10 -12 25 -21 32 -21 13 0 13 -49 -1
-144 0 -6 6 -11 15 -13 13 -3 17 6 22 43 7 64 25 72 56 24 39 -60 36 -40 -3
26 -19 31 -33 61 -30 66 9 14 23 -1 49 -52 14 -27 29 -51 35 -55 15 -9 12 7
-5 29 -25 33 -19 56 15 56 26 0 31 -5 40 -40 6 -22 15 -40 20 -40 6 0 10 -8
10 -19 0 -30 25 -45 44 -26 27 28 19 53 -24 75 -45 23 -58 43 -41 64 9 10 21
12 51 5 54 -12 82 -6 91 19 7 17 2 30 -21 56 -31 35 -39 71 -17 79 6 3 31 -6
55 -20 23 -13 53 -23 65 -21 24 3 26 28 12 109 -10 56 18 60 65 9 54 -58 78
-54 40 7 -47 77 -160 86 -224 16 -14 -15 -26 -23 -26 -17 0 6 9 19 20 29 25
23 25 36 -1 69 -17 21 -24 24 -35 15 -8 -6 -11 -15 -8 -20 3 -5 2 -9 -3 -8
-21 4 -34 -2 -27 -12 10 -17 -28 6 -50 29 -13 15 -16 29 -11 51 4 19 3 31 -3
31 -6 0 -12 7 -14 15 -2 12 -6 10 -17 -7z m132 -356 c4 -21 3 -31 -3 -27 -6 3
-10 20 -10 37 0 38 5 34 13 -10z"/>
<path d="M905 3673 c-19 -27 -35 -53 -35 -60 0 -13 61 -36 70 -26 3 5 18 24
32 43 l26 36 -22 27 c-12 15 -25 27 -29 27 -4 0 -22 -21 -42 -47z"/>
<path d="M1865 3643 c14 -29 29 -53 34 -53 11 0 -11 46 -40 80 -17 21 -16 16
6 -27z"/>
<path d="M2035 3645 c9 -67 12 -75 30 -75 13 0 15 6 10 33 -4 17 -16 46 -26
62 l-20 30 6 -50z"/>
<path d="M2115 3626 c-11 -7 -15 -18 -10 -25 5 -9 11 -7 22 9 19 26 13 34 -12
16z"/>
<path d="M3050 3610 c-19 -4 -21 -7 -9 -12 9 -3 22 -2 30 2 19 13 8 18 -21 10z"/>
<path d="M1150 3580 c6 -11 13 -20 16 -20 2 0 0 9 -6 20 -6 11 -13 20 -16 20
-2 0 0 -9 6 -20z"/>
<path d="M811 3499 c-25 -58 -42 -110 -101 -304 -9 -33 -20 -75 -24 -94 -6
-31 -4 -33 17 -27 12 3 37 6 55 6 42 0 41 17 -5 56 -48 40 -38 59 28 50 59 -8
69 4 35 45 -22 26 -35 69 -21 69 2 0 25 -7 51 -16 54 -18 73 -9 54 26 -11 21
-10 22 14 18 23 -5 26 -3 20 16 -10 34 -19 38 -57 28 -39 -11 -47 -8 -47 19 0
18 19 29 50 29 24 0 26 4 35 66 6 49 5 52 -18 58 -14 3 -32 9 -41 12 -12 5
-23 -9 -45 -57z"/>
<path d="M1166 3488 c-20 -27 -20 -52 -3 -67 11 -8 17 -5 28 15 10 20 19 25
41 22 22 -4 28 -1 28 13 0 40 -70 52 -94 17z"/>
<path d="M1870 3436 c-74 -21 -107 -43 -161 -109 -74 -88 -93 -135 -93 -227 0
-47 6 -88 17 -110 l16 -35 -6 72 c-5 61 -3 74 10 79 25 9 112 -15 136 -37 37
-34 27 -52 -46 -87 -38 -17 -74 -32 -81 -34 -18 -5 36 -79 80 -108 l33 -23
-33 32 c-19 17 -32 36 -30 42 2 6 30 25 61 42 l58 32 37 -20 c20 -11 38 -28
40 -37 5 -25 -16 -95 -34 -113 -14 -13 -13 -15 8 -15 13 0 32 -3 43 -6 17 -4
20 0 22 28 2 18 7 34 13 36 6 2 16 16 21 31 l11 26 13 -31 c7 -18 20 -36 28
-40 8 -5 16 -15 18 -22 3 -10 11 -8 31 7 14 12 32 21 40 21 16 0 75 61 102
104 25 40 37 83 22 83 -6 0 -35 6 -64 13 -48 11 -74 32 -59 46 5 5 88 -15 133
-33 15 -6 16 2 12 78 -10 186 -119 304 -298 323 -32 3 -74 0 -100 -8z m165
-48 c3 -7 -4 -44 -14 -83 l-20 -70 28 -26 c24 -21 31 -24 45 -13 16 11 16 13
-3 19 -16 5 -18 10 -11 30 5 12 6 26 2 30 -4 4 3 3 15 -4 12 -6 25 -20 28 -31
8 -25 11 -25 63 5 44 25 62 25 62 1 0 -11 -136 -83 -150 -79 -3 1 -4 -24 -2
-56 5 -69 -14 -106 -65 -127 -94 -40 -194 11 -209 107 -6 38 -6 38 -80 55 -41
10 -74 21 -74 26 0 13 51 92 69 105 23 18 65 12 69 -10 2 -11 -9 -32 -24 -48
-23 -24 -26 -32 -14 -39 8 -5 21 -5 31 1 10 5 25 9 34 9 9 0 23 7 31 15 13 12
11 22 -16 76 -29 57 -34 99 -10 84 6 -4 24 -33 40 -66 28 -54 33 -59 63 -58
17 1 25 3 17 6 -8 2 -28 25 -43 50 -36 59 -25 76 44 71 39 -2 49 0 53 15 5 20
34 23 41 5z m88 -65 c-7 -2 -19 -2 -25 0 -7 3 -2 5 12 5 14 0 19 -2 13 -5z
m-39 -443 c14 -24 17 -35 8 -38 -7 -2 -10 -8 -6 -13 3 -5 1 -9 -3 -9 -12 0
-53 86 -45 94 11 11 27 0 46 -34z"/>
<path d="M2003 3161 c47 -56 33 -125 -28 -137 -51 -9 -83 2 -105 39 -11 17
-20 26 -20 19 0 -44 65 -102 115 -102 38 0 85 50 85 90 0 44 -24 96 -51 111
-22 11 -22 10 4 -20z"/>
<path d="M3350 3360 c-9 -6 -10 -10 -3 -10 6 0 15 5 18 10 8 12 4 12 -15 0z"/>
<path d="M1119 3333 c-67 -75 -66 -73 -44 -89 19 -14 44 -20 31 -7 -8 9 55 74
66 67 4 -3 8 9 8 25 0 40 -27 41 -61 4z"/>
<path d="M3075 3339 c-4 -12 -2 -26 4 -32 8 -8 11 -2 11 21 0 37 -6 41 -15 11z"/>
<path d="M3308 3343 c7 -3 16 -2 19 1 4 3 -2 6 -13 5 -11 0 -14 -3 -6 -6z"/>
<path d="M3430 3311 c0 -6 4 -13 10 -16 6 -3 7 1 4 9 -7 18 -14 21 -14 7z"/>
<path d="M946 3297 c3 -10 9 -15 12 -12 3 3 0 11 -7 18 -10 9 -11 8 -5 -6z"/>
<path d="M952 3209 c-18 -16 -30 -34 -27 -39 10 -15 51 -12 65 5 15 18 69 11
82 -9 5 -7 8 -6 8 5 0 14 -71 69 -88 69 -4 0 -22 -14 -40 -31z"/>
<path d="M3160 3231 c0 -6 5 -13 10 -16 6 -3 10 1 10 9 0 9 -4 16 -10 16 -5 0
-10 -4 -10 -9z"/>
<path d="M1322 3186 c-43 -21 -43 -21 -37 -63 5 -35 3 -43 -10 -43 -12 0 -14
7 -9 28 4 18 3 23 -4 14 -7 -11 -11 -8 -16 12 -5 20 -13 26 -35 26 -16 0 -42
3 -58 6 -27 5 -30 3 -43 -35 -11 -34 -17 -40 -33 -35 -16 5 -17 3 -8 -13 5
-11 17 -25 25 -32 11 -10 12 -19 4 -42 -5 -16 -14 -27 -18 -24 -5 3 -11 -12
-15 -33 -7 -44 11 -126 31 -143 18 -15 18 -8 -3 42 -16 40 -15 42 2 55 30 22
40 17 56 -28 12 -34 21 -44 42 -46 26 -3 29 3 40 85 1 7 -7 19 -18 28 -20 16
-20 17 0 10 11 -3 16 -3 12 1 -4 4 -2 13 4 21 10 11 15 11 27 1 13 -11 14 -11
8 0 -6 10 -2 11 17 7 27 -7 105 29 88 40 -14 8 -14 42 -1 50 15 9 52 -15 46
-31 -3 -8 -1 -14 4 -14 17 0 40 32 40 55 0 21 -8 27 -55 40 -30 9 -57 21 -61
27 -8 13 10 31 49 45 l32 11 -30 0 c-16 -1 -49 -10 -73 -22z m-113 -309 c-9
-16 -13 -17 -20 -6 -5 8 -9 25 -9 38 0 23 1 24 20 6 15 -14 17 -22 9 -38z"/>
<path d="M3040 3153 c0 -21 19 -24 30 -4 8 17 7 20 -10 18 -11 -1 -20 -7 -20
-14z"/>
<path d="M3150 3126 c0 -7 -10 -16 -22 -20 -33 -8 -40 -7 -33 4 7 11 -6 13
-29 4 -19 -7 -21 -31 -4 -36 7 -3 24 1 38 9 14 7 33 13 43 13 10 0 17 8 17 20
0 11 -2 20 -5 20 -3 0 -5 -6 -5 -14z"/>
<path d="M3214 3132 c-6 -4 -14 -27 -17 -52 -3 -25 -4 -39 -1 -32 3 6 10 10
15 6 5 -3 9 4 9 15 0 11 8 26 18 33 31 23 36 38 10 38 -13 0 -28 -4 -34 -8z"/>
<path d="M666 3027 c-38 -181 -44 -255 -20 -264 23 -8 52 23 36 39 -16 16 -15
29 1 27 18 -4 87 33 87 46 0 6 -21 18 -47 26 -73 22 -65 45 20 63 37 8 34 33
-6 49 -18 8 -40 21 -49 30 -14 15 -16 13 -22 -16z"/>
<path d="M3217 3002 c-20 -22 -34 -82 -19 -82 18 0 42 12 42 20 0 5 -8 11 -17
13 -13 3 -11 5 6 6 16 1 21 6 18 16 -5 11 -1 12 16 6 12 -5 32 -7 45 -5 14 3
21 0 17 -6 -3 -5 -1 -10 4 -10 17 0 13 18 -9 40 -25 25 -81 26 -103 2z"/>
<path d="M1336 2971 c-3 -5 -2 -11 3 -13 4 -1 12 -13 15 -25 9 -27 -14 -32
-38 -8 -8 8 -21 15 -28 15 -10 0 -10 -2 -1 -8 9 -6 10 -22 4 -59 -8 -50 -7
-52 18 -58 19 -5 29 -2 36 10 5 10 18 27 27 39 16 20 18 20 47 4 30 -16 31
-16 55 13 19 22 23 35 17 52 -7 19 -17 22 -67 25 -32 2 -64 8 -70 13 -8 6 -14
6 -18 0z"/>
<path d="M3299 2951 c-3 -8 -23 -19 -44 -25 -45 -13 -55 -30 -24 -46 12 -7 19
-8 15 -2 -3 6 -2 13 4 17 5 3 10 -1 10 -9 0 -23 32 -20 59 6 20 18 22 23 9 32
-8 6 -17 18 -20 26 -4 13 -5 13 -9 1z"/>
<path d="M3380 2950 c0 -5 5 -10 10 -10 6 0 10 5 10 10 0 6 -4 10 -10 10 -5 0
-10 -4 -10 -10z"/>
<path d="M3135 2940 c3 -5 10 -10 16 -10 5 0 9 5 9 10 0 6 -7 10 -16 10 -8 0
-12 -4 -9 -10z"/>
<path d="M3067 2901 c-34 -14 -38 -19 -34 -46 3 -18 -1 -34 -9 -40 -18 -13 -1
-40 20 -32 10 4 16 18 16 37 0 25 6 33 33 45 29 12 33 12 47 -5 22 -27 109
-70 142 -70 38 0 81 25 102 60 18 32 21 70 5 70 -6 0 -9 -6 -6 -14 3 -8 -1
-17 -8 -20 -8 -3 -12 -12 -9 -21 5 -11 2 -14 -10 -9 -10 4 -16 1 -16 -9 0 -10
-7 -13 -20 -10 -11 3 -20 1 -20 -3 0 -5 -11 -9 -25 -9 -14 0 -25 4 -25 8 0 5
-9 5 -20 2 -11 -4 -20 -2 -20 4 0 6 -7 11 -15 11 -8 0 -15 7 -15 15 0 8 -8 15
-17 15 -9 0 -26 8 -37 18 -20 18 -23 18 -59 3z"/>
<path d="M3145 2900 c3 -5 8 -10 11 -10 2 0 4 5 4 10 0 6 -5 10 -11 10 -5 0
-7 -4 -4 -10z"/>
<path d="M1811 2863 c2 -16 7 -34 12 -40 14 -19 -8 -16 -27 3 -13 12 -16 13
-16 1 0 -7 11 -19 25 -25 36 -16 38 -15 33 13 -3 13 -2 26 2 27 4 2 11 13 14
26 6 19 4 22 -19 22 -23 0 -26 -4 -24 -27z"/>
<path d="M840 2828 c0 -9 7 -19 16 -22 15 -6 15 -4 3 11 -7 10 -15 20 -16 22
-2 2 -3 -3 -3 -11z"/>
<path d="M1035 2805 c17 -14 34 -25 39 -25 6 0 -5 11 -24 25 -43 32 -54 32
-15 0z"/>
<path d="M733 2794 c-33 -16 -72 -89 -56 -105 10 -9 63 0 63 12 0 5 -12 16
-27 24 -27 16 -23 16 27 4 15 -4 16 1 5 36 -4 15 -3 15 6 -3 15 -27 31 -24 40
9 7 24 7 24 8 -3 1 -33 7 -34 35 -10 20 16 20 16 6 -2 -14 -18 -13 -19 3 -13
9 3 17 2 17 -3 0 -5 -10 -11 -22 -13 -16 -3 -12 -5 12 -6 l35 -3 -35 -12 c-30
-11 -37 -11 -46 2 -13 18 -44 9 -44 -13 0 -8 4 -15 8 -15 5 0 9 -6 9 -14 0 -8
-6 -12 -12 -10 -7 3 -20 -7 -30 -22 -14 -22 -15 -28 -4 -35 25 -15 38 -10 42
19 l4 27 2 -27 c0 -18 7 -28 17 -28 9 0 12 5 8 12 -5 8 -2 9 9 5 21 -8 22 2 1
31 -8 12 -10 22 -5 22 6 0 11 -4 11 -8 0 -5 6 -17 14 -27 12 -16 16 -17 30 -6
24 20 20 30 -16 46 l-33 15 43 -5 c47 -5 48 -3 31 58 -18 66 -89 94 -156 61z"/>
<path d="M901 2786 c-16 -19 2 -56 27 -56 16 -1 16 -1 0 -11 -27 -15 -22 -29
11 -29 25 0 28 3 24 21 -4 12 -14 24 -24 26 -10 3 -15 11 -12 19 3 8 0 14 -7
14 -7 0 -10 7 -6 15 7 19 2 19 -13 1z"/>
<path d="M970 2764 c1 -15 51 -67 58 -60 3 4 2 14 -4 23 -13 20 -54 49 -54 37z"/>
<path d="M620 2710 c0 -35 25 -41 33 -8 7 26 1 38 -19 38 -9 0 -14 -11 -14
-30z"/>
<path d="M3490 2701 c0 -5 -3 -16 -6 -24 -3 -8 1 -17 9 -20 10 -4 12 3 9 24
-4 27 -12 40 -12 20z"/>
<path d="M2959 2680 c8 -25 41 -41 41 -21 0 6 -5 11 -11 11 -7 0 -18 8 -25 18
-13 15 -13 14 -5 -8z"/>
<path d="M3380 2691 c0 -6 4 -13 10 -16 6 -3 7 1 4 9 -7 18 -14 21 -14 7z"/>
<path d="M1171 2661 c-12 -16 -21 -40 -21 -53 0 -27 28 -58 51 -58 12 0 11 2
-1 10 -19 13 -8 13 25 0 21 -8 29 -6 48 13 l22 22 -47 3 c-34 2 -48 7 -48 17
0 24 48 30 70 10 19 -18 20 -17 20 8 0 57 -84 77 -119 28z"/>
<path d="M698 2673 c-21 -5 -22 -8 -7 -35 11 -20 11 -20 35 3 38 35 27 47 -28
32z"/>
<path d="M3030 2660 c0 -24 23 -26 41 -3 10 11 10 14 2 9 -7 -4 -13 -2 -13 3
0 6 -7 11 -15 11 -8 0 -15 -9 -15 -20z"/>
<path d="M3277 2649 c12 -12 25 -20 28 -17 3 3 -7 13 -22 23 l-28 17 22 -23z"/>
<path d="M3095 2640 c-24 -26 -8 -48 23 -31 10 6 23 7 27 3 4 -4 0 5 -10 21
-9 15 -18 27 -20 27 -1 0 -10 -9 -20 -20z"/>
<path d="M3566 2621 c-3 -5 1 -14 8 -20 12 -10 13 -8 9 8 -6 23 -9 25 -17 12z"/>
<path d="M3245 2590 c9 -17 20 -28 25 -25 16 10 11 22 -16 39 l-25 17 16 -31z"/>
<path d="M3133 2580 c-33 -13 -28 -37 8 -42 32 -5 46 9 35 37 -6 17 -12 18
-43 5z"/>
<path d="M2970 2561 c-14 -28 -13 -39 9 -51 15 -7 24 -5 41 8 19 16 21 22 11
40 -14 27 -47 29 -61 3z"/>
<path d="M2899 2543 c18 -35 13 -43 -35 -63 -37 -16 -45 -24 -42 -42 2 -19 11
-24 51 -30 59 -8 61 -10 53 -43 -6 -25 -10 -26 -57 -24 -41 2 -53 -1 -61 -16
-9 -15 -4 -24 31 -53 40 -33 41 -35 25 -53 -23 -26 -35 -24 -78 10 -29 23 -33
31 -23 40 21 17 39 89 32 130 -10 58 -23 68 -18 14 3 -37 -1 -59 -19 -93 -30
-59 -74 -83 -148 -83 -68 0 -118 26 -150 79 -27 42 -32 43 -18 3 6 -17 27 -48
48 -70 21 -22 31 -39 23 -39 -8 0 -25 -12 -38 -27 -23 -28 -24 -28 -53 -11
l-30 18 -7 -37 c-5 -26 -2 -40 9 -51 14 -15 20 -14 63 8 27 14 51 26 56 28 4
2 7 -3 7 -10 0 -8 -22 -25 -48 -37 -44 -21 -48 -25 -44 -55 2 -21 -3 -40 -17
-56 l-20 -25 11 32 c8 22 9 38 2 54 -10 22 -11 21 -11 -10 0 -52 -54 -70 -93
-31 -11 11 -20 16 -20 12 0 -13 23 -38 45 -50 20 -11 20 -11 -1 -12 -11 0 -31
10 -43 21 -14 13 -26 18 -30 12 -3 -6 -25 -20 -48 -32 -24 -12 -43 -25 -43
-30 0 -5 18 -25 41 -45 42 -39 73 -44 75 -13 1 12 1 13 -3 2 -5 -17 -12 -18
-30 -7 -16 10 -4 27 25 36 12 4 22 12 22 17 0 5 7 9 16 9 12 0 15 -6 11 -22
-3 -13 -9 -35 -12 -50 -7 -26 -5 -28 25 -28 17 0 29 4 26 9 -3 4 1 17 9 27 12
16 16 17 24 4 5 -8 7 -18 5 -22 -8 -13 4 -10 47 12 38 20 99 90 99 115 0 7
-18 15 -39 19 -36 5 -60 21 -49 31 2 3 19 0 38 -5 27 -8 36 -6 46 8 7 9 14 24
14 33 0 12 9 16 38 15 35 -1 37 1 40 32 3 27 7 32 28 32 26 0 26 5 7 55 -2 6
11 16 28 22 29 11 31 11 45 -22 24 -58 18 -70 -33 -68 -7 1 -13 -7 -13 -17 0
-10 -9 -20 -20 -23 -34 -9 -25 -44 15 -57 42 -14 47 -40 8 -40 -58 0 -70 -38
-23 -69 13 -9 21 -11 17 -4 -12 19 15 28 28 10 7 -10 17 -17 24 -17 6 0 11 -4
11 -10 0 -17 39 -11 60 10 40 40 15 90 -46 90 -45 0 -45 23 0 44 43 20 66 20
95 -1 14 -9 21 -11 17 -5 -11 19 9 14 38 -9 17 -14 26 -30 26 -50 0 -20 5 -29
16 -29 11 0 14 5 10 16 -3 9 -6 24 -6 35 0 31 -82 107 -124 114 -23 5 -38 14
-42 27 -8 26 0 32 24 19 11 -6 33 -8 49 -5 24 5 30 1 47 -30 16 -31 66 -66 93
-66 15 0 34 -49 40 -100 12 -102 -44 -202 -140 -252 -56 -29 -165 -31 -225 -4
-48 22 -46 19 -30 46 10 16 10 24 0 40 -20 32 -14 45 11 22 24 -22 96 -56 104
-48 2 2 -6 7 -19 11 -13 4 -33 17 -45 28 -20 18 -21 23 -9 36 20 24 26 58 10
58 -8 0 -14 -4 -14 -10 0 -5 -17 -6 -38 -2 -54 9 -73 -13 -43 -51 19 -24 28
-54 16 -54 -2 0 -20 8 -40 17 -32 15 -37 15 -51 1 -13 -13 -14 -20 -4 -37 6
-12 10 -29 8 -38 -2 -13 -9 -11 -37 12 -40 34 -64 26 -69 -24 -4 -39 -15 -39
-44 -1 -28 38 -43 38 -57 -1 -14 -40 -44 -36 -51 6 -7 38 -32 43 -54 10 -12
-19 -23 -24 -37 -20 -15 5 -19 2 -19 -18 0 -32 17 -45 70 -53 25 -4 50 -11 56
-15 6 -5 33 -5 61 0 28 6 59 7 71 5 21 -6 48 26 34 40 -3 4 1 4 10 1 15 -6 13
-12 -12 -47 -25 -34 -27 -43 -17 -59 7 -11 18 -17 27 -13 65 26 73 27 87 9 19
-27 18 -29 -32 -53 -41 -20 -57 -43 -37 -56 4 -2 25 -7 47 -10 22 -3 32 -3 23
0 -21 6 -24 24 -5 24 8 0 21 8 31 19 13 14 14 24 6 45 -5 15 -17 34 -25 43 -8
8 -13 19 -10 24 11 17 -5 30 -25 19 -15 -8 -19 -5 -24 25 -4 19 -14 39 -24 44
-16 10 -16 10 0 11 9 0 20 -4 23 -10 3 -5 19 -10 36 -10 26 0 29 3 29 33 0 19
3 37 6 40 4 3 27 -12 52 -33 46 -41 120 -70 178 -70 47 0 132 34 176 70 54 45
88 120 88 196 0 34 -7 80 -14 102 -16 44 -15 46 25 55 14 4 43 22 63 42 21 19
43 35 50 35 22 0 16 32 -17 98 -31 63 -67 99 -67 68 0 -10 6 -13 16 -9 13 5
15 2 9 -15 -5 -17 -2 -22 11 -22 17 0 16 -1 -1 -14 -17 -13 -17 -14 -1 -23 17
-9 17 -10 1 -17 -14 -5 -15 -9 -5 -21 10 -12 9 -15 -4 -15 -9 0 -16 -7 -16
-15 0 -8 -7 -15 -15 -15 -8 0 -15 -5 -15 -11 0 -6 -7 -9 -15 -5 -9 3 -15 -1
-15 -11 0 -13 -3 -13 -16 -2 -13 10 -17 10 -24 0 -6 -10 -9 -10 -15 -1 -4 6
-13 9 -21 6 -8 -3 -14 1 -14 10 0 11 -6 13 -20 9 -15 -5 -18 -3 -14 9 4 11 0
16 -11 16 -12 0 -15 5 -10 20 4 11 2 20 -4 20 -6 0 -8 6 -5 14 3 8 0 17 -6 21
-8 5 -5 11 7 21 11 8 13 13 6 14 -18 0 -16 20 2 20 8 0 15 5 15 10 0 6 7 10
16 10 11 0 14 5 10 16 -4 12 -1 14 14 9 15 -5 20 -2 20 11 0 13 3 14 14 5 10
-8 16 -9 21 -1 7 12 26 14 24 3 -3 -20 2 -24 16 -13 12 10 15 10 15 -4 0 -9 4
-16 9 -16 14 0 23 18 11 22 -17 5 13 57 35 60 15 2 21 12 23 37 l3 33 50 -4
c46 -5 50 -4 47 16 -2 16 -11 22 -38 24 -19 2 -39 7 -43 11 -5 5 -24 5 -43 1
-32 -7 -34 -6 -35 19 -1 25 -1 25 -10 -6 -12 -40 -53 -73 -90 -73 -30 0 -69
30 -69 53 0 6 -10 23 -21 37 -17 21 -19 22 -10 3z m229 -100 c-10 -12 -14 -11
-31 5 -27 28 -13 47 19 26 19 -13 22 -19 12 -31z m-184 8 c3 -4 -3 -16 -13
-25 -22 -20 -40 -4 -21 19 14 17 26 19 34 6z m121 -36 c0 -10 -5 -20 -11 -22
-13 -4 -27 24 -18 38 9 15 29 4 29 -16z m-65 -5 c0 -11 -7 -20 -15 -20 -8 0
-15 9 -15 20 0 11 7 20 15 20 8 0 15 -9 15 -20z m-390 -249 c0 -35 -10 -47
-42 -53 -23 -4 -29 -1 -37 24 -6 18 -7 26 -1 23 6 -4 10 7 10 23 0 30 0 30 35
19 28 -8 35 -15 35 -36z m-121 -240 c12 -8 12 -12 2 -25 -19 -23 -31 -20 -31
9 0 27 6 30 29 16z m-49 -52 c0 -16 -19 -9 -30 10 -17 33 -11 48 10 22 11 -13
20 -27 20 -32z m-46 -238 c-8 -9 -22 12 -17 26 6 15 7 14 13 -3 4 -10 6 -21 4
-23z m-114 15 c0 -3 -4 -8 -10 -11 -5 -3 -10 -1 -10 4 0 6 5 11 10 11 6 0 10
-2 10 -4z"/>
<path d="M3395 2534 c-14 -15 -25 -35 -25 -44 0 -18 30 -50 46 -50 5 0 3 4 -5
9 -12 8 -13 15 -4 34 14 30 48 43 68 27 18 -15 20 0 3 22 -25 31 -56 31 -83 2z"/>
<path d="M3612 2520 c0 -14 2 -19 5 -12 2 6 2 18 0 25 -3 6 -5 1 -5 -13z"/>
<path d="M3567 2475 c-7 -64 -34 -97 -92 -113 -42 -12 -53 -12 -91 3 -24 9
-53 28 -64 42 -11 14 -20 21 -20 15 0 -6 13 -26 29 -44 l28 -33 -28 -30 c-27
-28 -28 -29 -48 -10 -26 23 -27 9 -1 -32 22 -37 32 -42 29 -15 -3 32 1 35 20
18 18 -17 20 -16 26 5 12 37 29 49 61 40 19 -5 30 -15 32 -29 2 -12 7 -22 12
-22 13 0 25 23 22 43 -2 9 1 17 7 17 5 0 16 3 24 6 10 3 18 -3 23 -18 l7 -23
8 23 c5 12 14 22 20 22 8 0 8 4 -1 15 -10 12 -9 23 4 55 18 45 20 78 7 98 -5
9 -10 -2 -14 -33z"/>
<path d="M2550 2445 c-31 -49 -12 -105 36 -105 21 0 22 2 12 30 -14 42 -4 60
32 60 30 0 40 -13 19 -25 -6 -4 -8 -14 -5 -22 3 -8 1 -11 -4 -8 -6 3 -10 -4
-10 -17 0 -22 0 -22 19 -3 49 50 23 125 -44 125 -27 0 -37 -6 -55 -35z"/>
<path d="M3597 2433 c-13 -12 -6 -28 19 -47 25 -18 25 -18 12 3 -11 18 -11 23
1 30 8 5 24 8 37 6 13 -1 24 2 24 6 0 10 -83 12 -93 2z"/>
<path d="M770 2421 c0 -13 40 -41 58 -41 8 0 12 9 10 23 -2 17 -11 23 -35 25
-18 2 -33 -1 -33 -7z"/>
<path d="M3190 2394 c0 -7 8 -22 18 -34 14 -18 23 -21 43 -14 13 4 28 7 32 6
13 -4 20 29 9 40 -7 7 -22 6 -47 -2 -31 -10 -39 -10 -46 1 -5 9 -9 9 -9 3z"/>
<path d="M638 2301 c-56 -88 -61 -100 -48 -116 17 -20 59 1 53 26 -3 10 -1 19
5 19 5 0 12 -9 15 -20 7 -26 37 -26 37 -1 0 13 -11 23 -35 31 -40 13 -41 17
-19 48 11 15 24 22 42 20 34 -4 41 25 9 39 -21 10 -26 6 -59 -46z"/>
<path d="M3630 2325 c-8 -9 -8 -15 -2 -15 12 0 26 19 19 26 -2 2 -10 -2 -17
-11z"/>
<path d="M2995 2290 c-27 -10 -43 -30 -45 -55 -5 -46 2 -54 30 -35 13 9 12 13
-5 26 -20 16 -19 16 4 9 21 -6 23 -5 18 14 -5 19 -3 20 10 10 12 -10 16 -10
24 2 7 11 9 10 9 -5 0 -14 5 -17 21 -13 21 6 21 5 -2 -19 -12 -13 -32 -24 -44
-24 -12 0 -29 -6 -39 -13 -17 -12 -17 -14 -1 -27 14 -12 18 -12 26 1 7 11 9
11 9 -3 0 -22 28 -23 58 -2 22 15 29 38 15 47 -5 2 -2 2 5 1 22 -6 13 46 -13
71 -25 26 -45 30 -80 15z"/>
<path d="M2360 2275 c-26 -9 -37 -10 -42 -1 -5 7 -8 6 -8 -4 0 -8 -20 -23 -44
-33 -46 -19 -107 -83 -126 -132 -11 -29 -13 -107 -4 -141 6 -21 6 -21 60 8 41
23 54 35 54 53 0 19 -8 25 -50 35 -45 11 -69 30 -37 30 7 0 21 14 30 30 22 37
27 37 58 3 13 -14 19 -23 12 -19 -7 4 -17 -2 -23 -14 -9 -16 -8 -20 5 -20 27
0 39 43 21 78 -18 34 -20 52 -8 52 5 0 17 -18 27 -40 14 -32 23 -40 44 -40 26
0 26 0 -7 20 -45 27 -40 54 11 58 20 2 37 7 37 13 0 5 7 9 15 9 8 0 15 -6 15
-12 0 -7 11 0 24 17 18 22 22 34 15 47 -11 20 -29 21 -79 3z"/>
<path d="M3551 2274 c0 -11 3 -14 6 -6 3 7 2 16 -1 19 -3 4 -6 -2 -5 -13z"/>
<path d="M3500 2261 c0 -18 18 -21 30 -6 10 13 9 15 -9 15 -11 0 -21 -4 -21
-9z"/>
<path d="M3552 2238 c-16 -16 -15 -28 3 -28 8 0 15 9 15 20 0 23 -2 24 -18 8z"/>
<path d="M3364 2214 c-40 -19 -64 -62 -64 -113 0 -40 15 -55 26 -26 4 8 11 12
17 8 7 -4 8 0 3 12 -5 15 -4 16 9 5 13 -11 15 -10 10 2 -3 8 -18 19 -33 25
l-27 10 38 8 c32 6 37 10 32 29 -5 19 -5 19 5 3 11 -17 13 -17 35 7 28 31 39
33 30 7 -7 -22 17 -35 33 -19 8 8 16 7 28 -3 16 -13 16 -12 5 9 -13 24 -66 52
-98 52 -10 0 -32 -7 -49 -16z"/>
<path d="M3894 2196 c-9 -23 7 -42 18 -22 5 9 14 13 20 10 6 -4 9 -1 6 7 -7
20 -37 23 -44 5z"/>
<path d="M551 2153 c-6 -14 -9 -28 -7 -31 8 -7 36 19 36 34 0 25 -17 23 -29
-3z"/>
<path d="M3570 2170 c0 -6 7 -10 15 -10 8 0 15 2 15 4 0 2 -7 6 -15 10 -8 3
-15 1 -15 -4z"/>
<path d="M604 2136 c-24 -24 -34 -43 -34 -64 0 -28 2 -30 27 -23 35 9 40 27
11 37 l-23 8 25 6 c19 5 24 12 22 31 l-3 24 16 -22 c19 -27 35 -30 36 -5 0 14
2 14 9 -3 5 -12 9 -14 9 -6 1 11 5 10 17 -5 8 -10 13 -14 10 -8 -3 7 2 18 12
25 15 12 16 12 5 -2 -7 -9 -10 -19 -6 -23 4 -3 -2 -12 -12 -20 -13 -10 -15
-15 -6 -21 16 -9 28 3 33 35 2 15 9 24 18 22 8 -1 2 9 -13 23 -21 19 -39 25
-74 25 -38 0 -50 -5 -79 -34z"/>
<path d="M3970 2150 c0 -19 -48 -34 -73 -23 -19 9 -23 8 -23 -8 0 -14 6 -17
23 -13 17 5 23 2 23 -10 0 -9 -7 -16 -17 -16 -9 0 -14 -3 -10 -6 11 -12 45 7
51 29 5 18 8 19 15 7 5 -8 7 -18 4 -23 -3 -5 5 -4 17 3 21 11 22 13 6 22 -11
6 -15 16 -11 29 4 10 4 19 1 19 -3 0 -6 -5 -6 -10z"/>
<path d="M3990 2151 c0 -6 5 -13 10 -16 6 -3 10 1 10 9 0 9 -4 16 -10 16 -5 0
-10 -4 -10 -9z"/>
<path d="M1669 2129 c7 -10 13 -35 13 -55 0 -85 -114 -104 -156 -26 -11 20
-15 22 -16 9 0 -9 15 -34 34 -54 29 -32 40 -38 76 -38 32 0 47 6 61 24 27 34
26 103 -3 133 -13 13 -17 16 -9 7z"/>
<path d="M3512 2136 c7 -8 15 -12 17 -11 5 6 -10 25 -20 25 -5 0 -4 -6 3 -14z"/>
<path d="M3457 2129 c7 -7 15 -10 18 -7 3 3 -2 9 -12 12 -14 6 -15 5 -6 -5z"/>
<path d="M3587 2124 c-8 -8 1 -24 14 -24 5 0 9 7 9 15 0 15 -12 20 -23 9z"/>
<path d="M860 2108 c0 -7 5 -20 10 -28 7 -12 12 -12 21 -3 9 9 9 16 -1 28 -15
18 -30 20 -30 3z"/>
<path d="M3215 2110 c4 -6 -5 -20 -19 -31 -30 -24 -26 -39 10 -39 15 0 24 -6
24 -16 0 -9 -5 -12 -12 -8 -9 5 -9 2 1 -9 7 -9 19 -17 26 -17 8 0 16 -6 18
-12 4 -10 8 -10 16 2 14 21 3 31 -27 24 -27 -7 -27 -7 -9 14 22 24 15 42 -16
42 l-22 0 23 18 c18 14 20 20 10 30 -15 15 -32 16 -23 2z"/>
<path d="M3460 2095 c0 -17 -2 -17 -10 -5 -8 12 -10 12 -10 1 0 -9 -8 -12 -25
-9 -14 3 -25 1 -25 -3 0 -5 5 -9 12 -9 6 0 8 -3 5 -6 -4 -4 -13 -1 -22 6 -13
10 -15 9 -15 -10 0 -16 4 -21 16 -16 14 5 16 1 11 -24 -4 -18 -2 -30 4 -30 6
0 8 4 4 9 -3 6 3 15 14 21 13 7 22 7 26 0 3 -5 14 -9 23 -9 15 1 15 2 0 6 -10
2 -18 9 -18 14 0 6 4 8 9 5 5 -3 12 1 15 9 3 9 16 20 28 25 20 7 20 9 4 9 -10
1 -25 9 -32 19 -13 16 -13 16 -14 -3z"/>
<path d="M477 2029 c-44 -65 -47 -73 -33 -88 24 -23 43 0 28 33 -9 19 -8 25 3
30 10 3 17 -3 21 -19 9 -35 44 -34 44 0 0 14 5 25 11 25 5 0 7 5 4 10 -4 6
-15 8 -26 5 -11 -4 -19 -2 -19 5 0 7 9 14 20 17 13 3 20 14 20 29 0 42 -23 26
-73 -47z"/>
<path d="M655 2070 c-8 -13 3 -30 21 -30 18 0 18 14 0 29 -10 8 -16 9 -21 1z"/>
<path d="M3584 2069 c-3 -6 1 -18 10 -27 15 -15 16 -14 16 11 0 27 -13 36 -26
16z"/>
<path d="M3335 2056 c-16 -12 -17 -16 -6 -30 7 -9 17 -13 23 -10 5 4 5 11 -1
18 -7 9 -7 16 1 24 16 16 6 15 -17 -2z"/>
<path d="M1971 2042 c33 -43 59 -53 59 -22 0 11 -1 20 -3 20 -1 0 -17 4 -35
10 -31 8 -33 8 -21 -8z"/>
<path d="M579 2038 c0 -2 -3 -22 -5 -45 -6 -50 10 -57 43 -20 19 23 19 25 2
45 -14 18 -37 29 -40 20z m34 -55 c-3 -6 -11 -9 -19 -6 -20 7 -17 19 5 19 11
0 17 -6 14 -13z"/>
<path d="M3557 2014 c-3 -4 -2 -15 4 -26 9 -17 7 -18 -15 -12 -23 5 -26 3 -26
-20 0 -26 -13 -35 -25 -16 -10 16 -23 11 -31 -12 -6 -20 -8 -20 -19 -5 -15 21
-35 22 -35 3 0 -27 -20 -27 -30 0 -10 26 -11 26 -30 9 -20 -18 -24 -15 -21 18
2 18 -24 24 -34 7 -4 -6 -11 -8 -16 -5 -14 10 -11 -3 8 -25 10 -11 23 -20 29
-20 6 0 14 -12 17 -27 7 -39 -18 -83 -53 -92 -28 -7 -100 -7 -100 0 0 4 -9 11
-20 14 -11 4 -18 9 -16 13 2 4 -2 13 -10 20 -11 10 -14 10 -14 -1 0 -19 47
-79 73 -94 21 -12 20 -12 -15 -13 -44 0 -47 -9 -16 -50 27 -37 18 -48 -27 -31
-46 16 -61 7 -40 -26 9 -13 15 -31 13 -38 -3 -16 -17 -10 -73 29 -38 27 -118
30 -146 5 -12 -10 -26 -19 -31 -19 -5 0 -6 -4 -3 -10 3 -5 1 -10 -5 -10 -7 0
-10 -7 -6 -15 3 -8 1 -15 -3 -15 -5 0 -8 -18 -6 -40 4 -47 -12 -53 -27 -10
-12 37 -28 35 -41 -6 -12 -37 -11 -36 -31 -28 -10 4 -16 17 -16 35 0 17 -6 32
-15 35 -8 4 -15 10 -15 16 0 5 -7 16 -15 24 -12 13 -16 13 -20 2 -13 -36 -35
-101 -35 -103 0 -2 21 -17 48 -34 26 -17 54 -36 63 -43 14 -9 24 -5 61 25 43
35 46 36 61 19 24 -26 21 -33 -24 -67 -25 -18 -38 -35 -35 -45 2 -8 15 -41 28
-73 l23 -58 61 7 c60 6 61 5 66 -20 5 -23 1 -26 -31 -31 -74 -12 -77 -16 -84
-96 -3 -41 -2 -78 3 -83 8 -8 34 -9 92 -4 l26 3 -5 72 c-4 49 -2 77 6 87 9 11
10 24 2 53 -8 27 -7 48 0 73 18 55 50 123 69 145 10 11 20 31 23 46 4 14 20
45 37 70 16 24 30 54 30 67 0 15 6 22 20 22 20 0 38 40 26 59 -4 6 5 13 19 17
14 3 31 17 38 29 7 13 32 38 57 57 30 23 50 47 59 75 12 32 22 43 48 51 19 6
35 6 39 1 3 -5 16 -2 29 7 13 9 29 13 34 10 6 -4 15 3 21 14 6 11 17 20 25 20
7 0 17 10 21 22 4 13 14 28 23 35 14 11 13 12 -10 13 -14 0 -29 -3 -32 -6z
m-547 -408 c0 -5 3 -7 6 -3 8 8 33 -16 27 -25 -2 -5 1 -8 7 -8 6 0 8 -4 5 -10
-3 -5 -3 -10 2 -10 4 0 8 -13 8 -30 0 -16 -4 -30 -9 -30 -5 0 -7 -3 -3 -6 12
-13 -70 -72 -98 -70 -52 4 -112 66 -98 102 11 28 66 73 91 74 12 0 22 6 22 14
0 9 9 14 20 13 11 -1 20 -6 20 -11z m-277 -175 c3 -14 1 -18 -9 -14 -15 6 -18
16 -7 26 9 10 10 9 16 -12z m224 -102 c33 -38 30 -50 -9 -38 -41 11 -58 -3
-35 -29 18 -20 22 -42 8 -42 -15 0 -61 41 -56 50 3 5 -1 10 -7 13 -14 5 49 74
66 73 6 -1 20 -13 33 -27z m-47 -284 c0 -8 -2 -15 -4 -15 -2 0 -6 7 -10 15 -3
8 -1 15 4 15 6 0 10 -7 10 -15z"/>
<path d="M2920 1560 c-28 -53 7 -104 56 -81 27 12 34 61 12 78 -26 21 -58 22
-68 3z"/>
<path d="M3020 1515 c0 -8 -10 -25 -21 -36 -16 -16 -29 -20 -55 -16 -20 4 -32
2 -29 -4 11 -17 74 -10 95 11 18 18 28 60 15 60 -3 0 -5 -7 -5 -15z"/>
<path d="M743 1991 c-17 -11 -36 -28 -41 -37 -9 -15 -14 -16 -35 -7 -20 10
-28 9 -37 -2 -18 -21 -3 -35 30 -28 23 4 30 2 30 -9 0 -22 60 -32 78 -14 12
11 11 18 -2 45 -10 18 -12 31 -6 31 6 0 16 -11 22 -25 6 -14 18 -25 25 -25 8
0 12 3 10 8 -3 4 6 21 20 37 l25 30 -7 -38 c-4 -24 -2 -44 5 -52 15 -18 41 -8
33 12 -5 12 -1 14 14 9 33 -11 55 2 42 26 -30 55 -143 77 -206 39z"/>
<path d="M1040 1955 c-16 -19 -4 -35 26 -35 29 0 33 -25 4 -33 -28 -7 -25 -31
5 -45 32 -15 32 -32 0 -32 -34 0 -44 -27 -16 -46 32 -23 26 -36 -14 -28 -31 5
-35 4 -35 -14 0 -12 5 -24 10 -27 6 -3 10 -13 10 -21 0 -11 -4 -12 -19 -4 -35
18 -51 12 -51 -20 0 -33 -11 -38 -30 -16 -16 21 -40 9 -40 -20 0 -30 -14 -31
-34 -3 -16 24 -46 20 -46 -6 0 -8 -7 -15 -15 -15 -8 0 -15 9 -15 19 0 31 -19
35 -45 11 -25 -23 -41 -14 -30 19 8 26 -8 34 -39 20 -14 -7 -28 -10 -31 -7
-11 10 18 56 37 61 26 7 18 32 -10 33 -29 2 -55 24 -43 38 15 19 23 56 12 56
-6 0 -11 -9 -11 -19 0 -26 -46 -61 -81 -61 -15 0 -41 12 -58 26 -17 14 -29 20
-26 12 4 -9 -5 -14 -30 -15 -39 -2 -50 21 -15 32 29 9 25 35 -5 35 -32 0 -39
-18 -26 -66 14 -50 52 -76 158 -109 100 -32 135 -65 126 -120 -4 -27 -2 -35 9
-35 27 0 44 29 30 51 -14 22 0 26 18 4 9 -11 17 -12 30 -5 32 17 36 11 6 -9
-35 -24 -55 -56 -56 -93 0 -24 3 -26 27 -19 35 9 39 25 11 39 -21 11 -21 11 6
5 28 -6 29 -5 22 23 -7 27 -6 28 7 10 18 -25 56 -28 82 -7 20 16 20 16 3 -5
-24 -28 -23 -34 10 -35 20 -1 22 -2 7 -6 -11 -3 -26 -10 -32 -15 -9 -8 -13 -6
-13 5 0 24 -20 31 -37 14 -19 -19 -9 -37 20 -38 17 0 14 -3 -12 -12 -19 -7
-40 -22 -48 -34 -13 -19 -12 -23 7 -33 27 -14 29 -12 32 28 1 18 6 32 9 32 4
0 5 -16 2 -35 -5 -31 -3 -35 15 -35 12 0 25 6 29 13 4 6 14 12 22 12 8 0 19 8
25 18 8 14 8 20 -4 28 -13 9 -12 10 3 5 25 -8 31 16 19 67 -11 42 -11 42 8 20
10 -13 24 -23 32 -23 8 -1 7 -4 -4 -11 -10 -5 -18 -19 -18 -31 0 -11 8 -27 18
-35 15 -13 15 -14 0 -9 -9 2 -24 -4 -34 -15 -15 -17 -16 -24 -6 -40 13 -20 3
-26 -14 -9 -16 16 -54 0 -54 -24 -1 -20 -2 -20 -14 -3 -16 21 -66 23 -66 2 0
-8 -5 -15 -10 -15 -6 0 -8 10 -5 23 6 24 -28 56 -40 37 -3 -6 -14 -10 -23 -10
-15 0 -15 1 0 16 22 22 4 67 -24 58 -23 -7 -23 1 2 26 23 23 26 50 5 50 -8 0
-22 -16 -31 -35 -19 -41 -13 -76 20 -120 19 -26 22 -39 18 -90 l-4 -61 46 -38
c25 -20 49 -48 52 -60 3 -13 -4 -54 -15 -91 -12 -38 -19 -70 -16 -73 3 -3 5 0
5 6 0 9 12 10 40 6 32 -5 41 -3 46 11 5 13 -2 25 -25 44 -25 21 -29 29 -19 39
17 17 28 15 53 -8 31 -29 59 -17 51 21 -4 22 -1 31 14 39 17 9 20 7 26 -15 6
-26 37 -35 49 -15 5 8 11 7 21 -1 8 -6 14 -8 14 -3 0 4 5 3 12 -4 20 -20 38
-14 38 13 0 14 9 34 20 45 24 24 26 48 3 57 -11 4 -23 -3 -37 -20 -25 -31 -33
-32 -60 -12 -18 13 -18 15 3 41 27 34 26 46 -3 71 -19 17 -24 31 -24 66 0 29
5 47 13 51 10 3 12 16 8 40 -4 24 -2 36 6 36 16 0 13 22 -8 49 -27 35 -16 57
16 31 20 -16 28 -17 44 -7 22 14 23 23 4 57 -20 35 -18 43 10 57 28 12 28 13
44 -39 20 -61 71 -43 71 25 0 19 -8 26 -42 36 -35 11 -40 15 -27 25 8 6 18 19
22 29 5 13 13 16 27 12 10 -3 30 0 42 7 13 7 29 11 36 10 6 -2 17 9 22 24 8
21 8 31 -4 42 -12 13 -22 13 -60 2 -39 -11 -47 -10 -61 4 -15 14 -13 19 19 51
20 20 36 40 36 45 0 27 -15 40 -44 40 -18 0 -41 7 -52 15 -24 18 -29 18 -44 0z
m-566 -216 c-22 -24 -34 -24 -34 -1 0 27 20 44 37 30 11 -9 11 -14 -3 -29z
m130 -5 c7 -17 0 -34 -14 -34 -11 0 -21 30 -14 41 8 14 21 11 28 -7z m-64 -6
c0 -7 -4 -18 -8 -25 -11 -17 -36 1 -29 21 7 19 37 22 37 4z m620 -137 c0 -6
-5 -13 -12 -17 -6 -4 -8 -3 -4 4 3 5 0 13 -6 15 -8 3 -6 6 5 6 9 1 17 -3 17
-8z m-150 -31 c0 -5 -2 -10 -4 -10 -3 0 -8 5 -11 10 -3 6 -1 10 4 10 6 0 11
-4 11 -10z m-166 -156 c3 -8 2 -12 -4 -9 -6 3 -10 10 -10 16 0 14 7 11 14 -7z
m-88 -141 c9 -21 25 -46 37 -56 l22 -19 -30 6 -30 7 25 -21 c14 -11 23 -20 20
-21 -20 -6 -50 -5 -50 2 0 5 -8 6 -17 2 -10 -3 -15 -3 -11 2 4 4 0 15 -10 24
-18 17 -23 75 -9 99 15 23 38 12 53 -25z m170 29 c15 -10 12 -54 -5 -74 -24
-28 -32 -21 -26 20 l6 37 -15 -31 c-8 -18 -20 -35 -28 -39 -10 -6 -11 -5 0 6
6 7 12 27 12 44 0 18 3 35 7 38 8 9 35 9 49 -1z m44 -199 c-1 -24 -2 -26 -11
-10 -5 9 -7 22 -4 27 10 17 15 11 15 -17z"/>
<path d="M2903 1925 c-2 -51 -30 -97 -56 -93 -16 2 -23 -3 -25 -19 -4 -28 9
-29 33 -3 10 12 24 19 31 16 15 -6 34 44 34 90 0 43 -15 51 -17 9z"/>
<path d="M1977 1924 c13 -21 57 -37 68 -26 3 3 5 13 5 23 0 13 -10 18 -44 20
-42 4 -43 3 -29 -17z"/>
<path d="M401 1912 c-8 -16 -7 -21 6 -26 26 -10 40 11 21 30 -15 15 -17 15
-27 -4z"/>
<path d="M918 1896 c-24 -13 -36 -26 -33 -36 2 -8 0 -22 -5 -30 -8 -12 -10 -8
-11 15 -1 24 -3 25 -6 7 -6 -32 -35 -45 -61 -26 -12 8 -22 11 -22 5 0 -5 10
-17 22 -25 12 -9 18 -16 12 -16 -5 0 -19 6 -30 14 -13 10 -25 11 -35 5 -25
-16 -35 -9 -11 9 14 11 21 24 17 33 -7 18 -80 43 -95 34 -18 -11 -10 -34 12
-37 35 -5 34 -28 -1 -28 -19 0 -31 -5 -31 -13 0 -16 32 -47 48 -47 7 0 12 -4
12 -8 0 -12 59 -44 70 -37 6 3 10 15 10 25 0 10 5 22 12 26 8 5 9 -3 5 -29
l-6 -37 37 0 c48 0 72 14 54 32 -6 6 -12 19 -12 28 1 8 8 3 16 -14 l16 -28 28
27 c42 40 45 64 9 72 -16 3 -32 10 -35 14 -7 12 9 11 39 0 19 -8 27 -6 31 5 6
16 -3 73 -13 77 -3 2 -23 -6 -43 -17z"/>
<path d="M3210 1904 c-11 -12 -10 -18 3 -31 18 -18 44 -12 54 13 11 30 -35 45
-57 18z"/>
<path d="M3275 1878 c-6 -14 -22 -25 -40 -29 -29 -5 -29 -5 -6 -13 28 -10 65
21 59 48 -2 14 -5 13 -13 -6z"/>
<path d="M512 1878 c-29 -29 3 -82 36 -61 25 15 22 67 -3 71 -11 1 -26 -3 -33
-10z"/>
<path d="M2926 1873 c-4 -10 -1 -20 8 -25 22 -12 -2 -50 -26 -42 -12 3 -18 -2
-20 -18 -2 -14 -9 -22 -18 -20 -8 2 -11 0 -7 -5 5 -4 -11 -13 -35 -19 -36 -10
-38 -12 -15 -13 15 -1 41 6 56 14 16 8 32 11 36 7 4 -4 5 3 2 16 -3 12 -1 20
4 17 5 -4 18 3 30 14 16 15 20 26 15 46 -4 17 -3 24 3 20 7 -3 8 0 5 9 -8 21
-30 20 -38 -1z"/>
<path d="M2750 1853 c0 -25 15 -38 25 -22 4 6 0 18 -9 27 -15 15 -16 15 -16
-5z"/>
<path d="M1985 1832 c-10 -26 -5 -44 20 -74 25 -30 32 -53 17 -62 -5 -3 -32 7
-61 22 l-53 27 -18 -23 c-17 -21 -18 -26 -5 -70 8 -26 15 -50 15 -53 0 -16
-53 7 -74 32 -45 54 -86 30 -86 -49 0 -39 -1 -40 -26 -33 -17 4 -33 20 -43 41
-12 26 -22 35 -41 35 -20 0 -28 -8 -40 -42 -15 -44 -27 -51 -61 -33 -18 10
-19 8 -14 -51 3 -34 7 -65 10 -67 3 -3 13 2 22 10 10 9 27 19 39 22 12 4 30
24 40 46 22 46 30 49 38 15 4 -14 13 -25 20 -25 8 0 16 -7 20 -15 3 -8 12 -15
21 -15 13 0 11 -6 -8 -32 -46 -62 -46 -116 0 -162 34 -34 49 -33 23 2 -22 30
-19 86 6 96 17 7 37 -55 32 -100 -2 -18 1 -36 7 -38 5 -2 4 -5 -4 -5 -11 -1
-10 -5 5 -15 10 -8 16 -18 12 -21 -14 -15 -80 7 -116 38 -33 28 -35 29 -21 7
9 -14 39 -41 67 -61 51 -36 51 -36 28 -49 -13 -7 -27 -25 -30 -41 -7 -36 -26
-38 -26 -4 0 28 -12 32 -30 10 -17 -21 -33 -8 -25 22 4 19 3 24 -7 20 -53 -21
-51 -22 -43 12 6 30 6 32 -19 25 -26 -6 -37 8 -16 21 6 3 10 13 10 21 0 10 -7
13 -24 8 -31 -7 -43 12 -16 26 25 13 26 30 2 30 -30 0 -34 13 -10 31 l22 17
-27 13 c-32 14 -35 29 -7 29 28 0 25 17 -8 48 -15 15 -38 41 -50 57 l-22 30
11 -30 c8 -25 7 -32 -8 -43 -10 -7 -28 -15 -40 -19 -16 -3 -23 -13 -23 -28 0
-18 7 -25 33 -30 62 -13 64 -14 59 -40 -4 -23 -9 -25 -53 -25 -66 0 -76 -22
-29 -61 30 -26 32 -31 22 -54 -11 -24 -13 -25 -40 -11 -48 25 -54 38 -37 79
16 38 19 109 6 141 -5 12 -7 1 -7 -30 0 -71 -28 -122 -78 -145 -83 -37 -166
-17 -217 54 -34 47 -37 42 -9 -13 24 -46 74 -87 119 -96 30 -6 32 -9 27 -37
-3 -16 -6 -34 -6 -39 0 -6 -15 -8 -36 -3 -35 6 -36 5 -29 -17 4 -13 6 -33 6
-45 -1 -28 11 -35 43 -27 14 3 27 15 30 30 4 13 10 24 16 24 17 0 50 -58 50
-88 0 -39 13 -47 35 -22 10 11 22 20 27 20 12 0 10 -34 -4 -48 -18 -18 4 -37
28 -25 21 10 26 10 102 -2 l53 -8 -6 -66 c-4 -36 -11 -70 -15 -75 -5 -4 -27
-5 -49 -1 -40 7 -51 18 -31 30 21 13 -2 31 -35 27 -36 -4 -48 -28 -20 -38 19
-8 20 -34 1 -34 -25 0 -37 25 -26 54 13 34 13 46 0 46 -5 0 -10 -9 -10 -19 0
-10 -8 -29 -18 -41 -24 -30 -91 -33 -121 -6 -14 13 -21 15 -21 6 0 -9 -4 -10
-13 -2 -8 7 -18 7 -27 2 -22 -14 -30 -12 -30 6 0 9 9 18 20 21 25 7 26 29 1
36 -12 3 -18 -1 -17 -11 2 -35 -98 -56 -147 -31 -12 6 -32 23 -44 37 -13 15
-23 22 -23 15 0 -6 15 -28 34 -47 18 -20 29 -36 23 -36 -6 0 -21 -10 -34 -22
-22 -20 -25 -21 -40 -5 -16 15 -15 18 1 36 36 40 4 62 -55 37 -11 -5 -19 -1
-23 9 -8 22 0 34 30 45 36 14 31 46 -7 54 -17 3 -37 6 -43 6 -17 0 -9 -96 11
-133 25 -48 83 -105 119 -117 81 -27 361 -27 438 0 16 5 57 10 90 10 34 0 66
4 72 9 5 5 28 12 51 16 31 5 43 3 50 -9 7 -12 19 -13 73 -6 36 5 74 11 86 14
20 4 21 1 17 -62 -6 -92 2 -99 63 -66 27 15 50 28 51 29 1 0 0 10 -3 22 -4 15
-17 23 -42 28 -44 8 -54 14 -47 25 3 4 23 3 45 -2 34 -9 44 -8 60 7 20 18 20
18 0 50 -21 34 -26 55 -12 55 5 0 17 -18 27 -40 26 -58 55 -52 73 13 9 33 18
47 27 43 7 -2 18 1 25 8 8 11 1 15 -35 20 -25 4 -45 10 -45 14 0 4 11 24 25
45 23 33 28 35 45 25 29 -19 64 18 54 56 -7 27 -8 28 -57 22 -61 -9 -70 -13
-63 -33 8 -20 -24 -73 -45 -73 -9 0 -46 23 -82 51 -41 31 -71 48 -79 44 -7 -4
-1 4 13 19 21 22 36 28 80 30 30 1 62 -1 72 -6 12 -6 17 -5 17 6 0 10 19 19
60 27 l60 12 2 53 c1 30 2 64 2 76 1 18 -10 26 -54 43 -50 19 -56 20 -68 6
-10 -14 -11 -14 -5 3 5 15 3 17 -8 12 -8 -4 -6 -1 5 8 10 8 16 22 13 30 -3 8
-3 17 1 20 10 11 1 89 -15 119 -18 35 -75 61 -120 54 -29 -5 -31 -4 -19 9 8 8
18 34 22 59 3 25 9 45 12 45 3 0 20 -11 38 -25 45 -34 82 -33 89 3 8 36 19 55
34 60 10 3 11 -4 6 -27 -7 -34 -4 -37 25 -19 23 15 35 6 26 -19 -10 -26 -8
-28 19 -25 29 4 31 -4 8 -30 -15 -17 -14 -18 16 -18 50 0 52 27 6 66 -39 32
-39 33 -21 53 l19 21 33 -25 c36 -27 54 -31 71 -14 8 8 7 21 -4 46 -13 31 -12
39 1 68 31 65 14 94 -37 60 -15 -9 -27 -11 -37 -5 -13 8 -13 13 2 38 9 15 14
33 10 38 -10 16 -111 12 -117 -4z m88 -84 c3 -11 0 -18 -9 -18 -8 0 -14 2 -14
4 0 2 -2 11 -5 19 -4 8 0 14 9 14 8 0 17 -9 19 -19z m-38 -127 c3 -5 1 -12 -5
-16 -5 -3 -10 1 -10 9 0 18 6 21 15 7z m-140 -211 c23 -19 18 -39 -11 -46 -25
-6 -26 -10 -22 -56 4 -41 2 -50 -15 -59 -24 -14 -29 -8 -57 71 -12 36 -25 70
-27 76 -11 30 99 42 132 14z m-604 -277 c10 -32 10 -38 -7 -50 -10 -7 -24 -11
-31 -9 -10 4 -10 1 0 -14 14 -24 53 -26 65 -4 6 10 5 30 -1 51 -14 45 3 65 33
38 25 -22 124 -22 178 1 36 15 51 8 52 -21 0 -6 18 -22 40 -35 22 -14 40 -28
40 -32 0 -5 9 -8 20 -8 11 0 20 -7 20 -15 0 -18 -71 -66 -103 -71 -12 -2 -46
-7 -74 -12 -100 -17 -193 10 -266 77 -45 42 -70 88 -42 77 11 -4 13 2 9 22 -4
21 -1 29 18 38 30 13 34 11 49 -33z m-23 -198 c-3 -3 -9 2 -12 12 -6 14 -5 15
5 6 7 -7 10 -15 7 -18z m436 -80 c37 -92 35 -106 -16 -128 -40 -17 -43 -17
-60 0 -9 10 -29 48 -42 86 -23 61 -24 67 -8 67 9 1 33 9 52 20 19 11 38 19 41
20 4 0 19 -29 33 -65z m88 45 c7 -11 20 -20 29 -20 9 0 31 -13 48 -30 l32 -29
-38 -19 c-21 -11 -47 -29 -57 -41 l-19 -21 -23 32 c-26 34 -31 58 -13 58 8 0
9 15 5 45 -6 37 -4 45 8 45 9 0 21 -9 28 -20z m-812 -194 c0 -34 -15 -49 -40
-41 -16 5 -20 12 -16 28 3 12 6 27 6 33 0 7 11 9 25 6 17 -3 25 -11 25 -26z
m95 0 c7 -21 6 -29 -5 -36 -18 -11 -29 -4 -41 28 -7 18 -6 28 3 34 19 12 32 4
43 -26z m66 -5 c-7 -12 -17 -18 -26 -15 -19 8 -19 13 2 36 21 24 39 8 24 -21z
m69 -17 c0 -15 -27 -30 -36 -21 -3 3 -3 15 1 26 7 22 35 18 35 -5z m64 9 c8
-20 -15 -37 -26 -20 -12 19 -9 37 6 37 8 0 17 -8 20 -17z"/>
<path d="M1307 1693 c-11 -11 -33 -18 -59 -18 -23 -1 -43 -6 -46 -13 -2 -7 4
-12 13 -12 14 0 16 -9 13 -52 -3 -50 -2 -53 22 -56 18 -2 30 5 45 28 21 32 46
38 64 17 8 -10 3 -23 -19 -54 -29 -39 -29 -41 -11 -57 17 -16 20 -16 36 1 10
10 32 25 49 33 17 8 35 25 41 38 6 13 19 22 32 22 19 0 23 5 23 34 0 26 -5 35
-22 40 -15 4 -26 1 -33 -10 -27 -44 -40 -53 -69 -47 -28 6 -28 7 -22 56 5 36
4 52 -6 58 -20 13 -32 11 -51 -8z"/>
<path d="M2231 1464 c-44 -56 -13 -111 58 -99 32 5 41 12 50 37 17 47 -4 82
-50 86 -30 3 -41 -2 -58 -24z m83 -20 c26 -10 19 -22 -24 -44 -50 -26 -52 -25
-39 7 14 39 32 49 63 37z"/>
<path d="M2440 1420 c0 -153 -165 -215 -276 -105 l-44 45 19 -38 c10 -20 28
-45 39 -55 21 -19 21 -19 -14 -49 -33 -29 -35 -30 -59 -14 -21 14 -25 14 -25
2 0 -8 5 -18 10 -21 6 -3 10 -38 10 -77 0 -68 1 -70 23 -65 12 3 57 13 100 22
42 9 78 22 79 29 0 6 2 24 3 40 1 16 10 33 19 38 12 7 16 17 12 32 -4 17 1 24
24 33 28 10 29 9 45 -30 13 -32 14 -42 3 -48 -13 -9 -27 -12 -40 -11 -14 2 6
-85 25 -105 26 -29 79 -31 107 -3 30 30 27 83 -6 109 -15 12 -33 21 -41 21
-14 0 -34 39 -26 53 7 12 20 8 53 -19 l31 -27 24 23 c21 20 43 66 26 55 -11
-6 -35 41 -27 53 4 6 14 11 24 11 34 -1 71 8 85 19 11 10 17 9 25 -1 8 -9 -4
-29 -49 -80 -49 -57 -57 -71 -49 -87 22 -40 26 -38 94 44 21 25 42 46 46 46 5
0 19 -18 31 -40 23 -40 39 -51 39 -27 0 7 -11 36 -25 64 -27 54 -92 121 -144
147 l-31 17 0 -31 0 -31 -52 2 c-43 3 -52 0 -59 -17 -5 -16 0 -25 22 -40 35
-23 43 -42 28 -60 -17 -20 -40 -17 -71 10 l-27 24 20 38 c20 41 25 109 9 134
-7 11 -10 3 -10 -30z m-182 -196 c19 -6 23 -12 20 -43 -4 -45 -26 -51 -62 -18
-30 28 -32 37 -11 37 8 0 15 7 15 15 0 17 4 18 38 9z"/>
<path d="M710 1430 c-13 -8 -13 -11 2 -26 16 -17 18 -17 38 1 11 10 20 22 20
27 0 11 -41 10 -60 -2z"/>
<path d="M1992 1418 c2 -6 11 -15 19 -18 8 -4 24 -12 35 -18 24 -12 34 -7 34
19 0 17 -27 29 -68 29 -14 0 -22 -5 -20 -12z"/>
<path d="M1110 1385 c-19 -31 -20 -38 -8 -62 7 -15 21 -29 31 -31 15 -3 16 0
7 23 -7 17 -7 24 0 20 6 -3 10 -2 10 2 0 5 6 17 13 27 12 16 14 16 40 -4 25
-20 27 -20 27 -3 0 35 -29 63 -65 63 -27 0 -37 -6 -55 -35z"/>
<path d="M1974 1362 c1 -60 1 -60 41 -81 36 -20 43 -20 77 -8 34 12 36 15 25
31 -13 17 -15 17 -45 2 -47 -24 -60 -20 -71 22 -6 20 -11 44 -11 52 0 8 -4 21
-9 28 -4 8 -8 -12 -7 -46z"/>
<path d="M2779 1153 c-2 -6 -44 -19 -94 -30 -88 -19 -90 -20 -90 -48 0 -24 7
-31 45 -47 25 -11 39 -14 33 -7 -7 7 -13 19 -13 26 0 18 37 16 44 -2 9 -25 43
-18 50 10 7 29 21 32 35 8 8 -14 10 -10 10 22 0 43 -13 87 -20 68z"/>
<path d="M2550 1092 c0 -35 -6 -50 -30 -74 -26 -26 -36 -29 -73 -26 -23 3 -51
8 -62 12 -14 5 -11 -1 10 -18 32 -27 90 -35 124 -16 15 8 25 -3 66 -76 26 -47
50 -83 52 -80 3 3 -6 26 -21 51 -18 33 -23 52 -17 64 10 17 51 26 51 11 0 -5
14 -11 30 -15 34 -7 34 -8 20 -36 -6 -11 -8 -24 -4 -30 6 -11 54 47 54 66 0
10 -154 85 -175 85 -6 0 -9 19 -7 44 2 25 -1 53 -7 63 -8 15 -10 10 -11 -25z"/>
<path d="M2235 1026 c-104 -26 -113 -26 -118 -8 -4 14 -5 13 -6 -3 -1 -24 39
-110 68 -145 l21 -25 19 25 c14 17 17 29 10 42 -19 35 -10 53 31 66 22 6 47
12 55 12 18 0 18 5 5 31 -12 21 -15 22 -85 5z"/>
<path d="M1181 951 c-16 -10 -6 -31 15 -31 8 0 14 9 14 20 0 22 -7 25 -29 11z"/>
<path d="M2298 894 c-62 -70 -65 -76 -45 -91 19 -15 49 -24 42 -13 -3 6 13 31
37 56 l43 46 11 -27 11 -27 7 32 c13 68 4 90 -37 90 -7 0 -38 -30 -69 -66z"/>
<path d="M2972 944 c-7 -7 -17 -25 -22 -39 l-9 -25 -56 22 c-30 11 -56 19 -58
17 -1 -2 -21 -31 -44 -65 -38 -56 -40 -63 -26 -77 14 -14 19 -11 52 39 21 33
42 53 51 52 43 -9 1 -104 -50 -115 -29 -5 -30 -7 -14 -24 12 -13 21 -16 29 -9
9 8 16 2 25 -20 16 -38 3 -53 -18 -22 l-15 23 -23 -22 -23 -22 -28 33 c-15 19
-33 40 -38 47 -9 12 -23 8 -80 -18 -39 -18 -71 -33 -73 -34 -1 -1 2 -26 8 -55
12 -63 7 -70 -61 -70 -51 0 -64 -8 -103 -67 -29 -43 -46 -47 -74 -14 -8 9 -11
11 -8 4 4 -6 2 -23 -4 -37 -11 -29 2 -43 20 -21 7 8 21 15 32 15 20 0 21 -6 7
-60 -3 -9 2 -14 11 -11 52 13 60 13 60 -3 0 -9 8 -16 20 -16 12 0 20 7 20 18
1 16 1 16 11 0 8 -14 23 -18 68 -18 52 0 59 2 65 23 11 43 6 110 -10 128 -10
11 -16 39 -17 76 l-2 58 34 0 c19 0 36 6 39 13 2 6 10 12 17 12 7 0 15 10 19
23 l5 22 22 -21 c26 -26 17 -48 -17 -41 -13 2 -24 1 -24 -2 1 -18 33 -44 62
-50 27 -5 37 -15 55 -51 12 -25 24 -65 26 -89 3 -24 11 -48 18 -53 11 -8 10
-9 -3 -4 -20 6 -30 -6 -22 -27 8 -21 97 -21 152 0 39 14 45 14 85 -1 26 -10
73 -16 121 -16 l78 0 -34 48 c-19 26 -45 66 -58 89 -20 36 -25 40 -35 27 -6
-9 -27 -17 -48 -19 -48 -4 -57 -11 -57 -41 0 -37 -17 -28 -22 12 -4 36 13 56
40 47 6 -3 12 0 12 7 0 6 6 10 13 8 17 -3 57 12 57 22 0 9 -19 54 -63 150 -13
30 -35 91 -47 135 -37 133 -33 125 -48 109z m20 -106 c-3 -13 -14 -18 -43 -18
-50 0 -60 -21 -24 -52 18 -16 24 -29 20 -41 -9 -22 -24 -21 -53 3 -22 18 -22
19 -5 72 l17 53 47 1 c40 0 46 -2 41 -18z m79 -174 c11 -25 18 -52 15 -60 -3
-8 -36 -29 -73 -45 -102 -45 -98 -41 -94 -90 2 -24 7 -52 12 -62 7 -13 6 -19
-6 -23 -21 -8 -61 30 -70 64 -3 15 -20 58 -37 95 -26 57 -29 70 -17 77 8 6 18
5 23 0 17 -17 53 -11 62 11 8 17 125 76 157 78 4 1 17 -20 28 -45z m6 -190
c-3 -3 -12 -4 -19 -1 -8 3 -5 6 6 6 11 1 17 -2 13 -5z m73 -22 c0 -19 -23 -32
-37 -21 -20 17 -15 29 12 29 14 0 25 -4 25 -8z m35 -22 c3 -5 1 -10 -4 -10 -6
0 -11 5 -11 10 0 6 2 10 4 10 3 0 8 -4 11 -10z"/>
<path d="M936 925 c-30 -46 -15 -85 34 -85 54 0 80 65 38 94 -32 23 -53 20
-72 -9z"/>
<path d="M2455 938 c-11 -31 -24 -183 -17 -190 18 -18 42 4 42 37 0 18 7 46
15 61 10 19 15 23 15 12 0 -11 16 -25 40 -37 l41 -20 -24 42 c-58 102 -62 107
-85 107 -12 0 -25 -6 -27 -12z m70 -48 c3 -5 1 -10 -4 -10 -6 0 -11 5 -11 10
0 6 2 10 4 10 3 0 8 -4 11 -10z"/>
<path d="M1090 926 c0 -2 7 -9 15 -16 13 -11 14 -10 9 4 -5 14 -24 23 -24 12z"/>
<path d="M1141 914 c0 -11 3 -14 6 -6 3 7 2 16 -1 19 -3 4 -6 -2 -5 -13z"/>
<path d="M1090 871 c0 -5 5 -13 10 -16 6 -3 10 -2 10 4 0 5 -4 13 -10 16 -5 3
-10 2 -10 -4z"/>
<path d="M2080 871 c0 -5 5 -13 10 -16 6 -3 10 -2 10 4 0 5 -4 13 -10 16 -5 3
-10 2 -10 -4z"/>
<path d="M1337 853 c-24 -6 -17 -37 9 -41 22 -3 39 21 28 39 -5 9 -8 10 -37 2z"/>
<path d="M1181 836 c-21 -26 -9 -51 24 -51 27 0 30 3 30 30 0 23 -5 31 -21 33
-11 2 -26 -4 -33 -12z"/>
<path d="M2055 840 c3 -5 14 -10 23 -10 15 0 15 2 2 10 -20 13 -33 13 -25 0z"/>
<path d="M2097 754 c-38 -35 -39 -35 -59 -17 -21 18 -21 18 -16 -4 7 -27 -4
-30 -23 -7 -12 14 -14 13 -21 -7 -12 -31 16 -61 50 -52 17 4 23 2 18 -6 -4 -6
-13 -11 -19 -11 -8 0 -12 -19 -13 -50 -1 -49 0 -50 28 -50 23 0 31 -6 39 -30
11 -31 39 -42 39 -14 0 8 -4 13 -9 9 -16 -9 -24 15 -11 30 10 13 7 16 -19 21
-49 10 -52 28 -3 21 36 -6 41 -4 47 14 5 16 -1 28 -27 50 -23 20 -28 28 -16
29 9 0 30 11 46 25 17 14 35 25 41 25 12 0 71 -39 82 -54 4 -5 10 2 14 15 5
15 3 25 -4 27 -7 2 -32 19 -57 38 -24 19 -50 34 -57 34 -6 0 -29 -17 -50 -36z"/>
<path d="M2512 765 c-11 -13 -10 -15 7 -15 14 0 19 5 15 15 -7 18 -6 18 -22 0z"/>
<path d="M2319 646 c-10 -22 -19 -47 -19 -54 0 -10 -8 -12 -30 -7 -39 9 -41
-15 -2 -36 39 -22 55 -14 80 36 l22 45 54 0 c41 0 58 -4 66 -17 9 -15 10 -11
5 17 -3 19 -9 37 -13 41 -4 4 -38 9 -75 12 l-69 5 -19 -42z"/>
<path d="M1988 610 c3 -24 0 -32 -19 -39 -24 -10 -24 -10 4 -10 24 -1 27 2 27
33 0 19 -4 37 -8 40 -5 3 -6 -8 -4 -24z"/>
<path d="M1590 594 c0 -29 3 -35 16 -30 9 3 19 6 24 6 16 0 19 30 4 45 -27 26
-44 18 -44 -21z"/>
<path d="M1880 593 c0 -15 18 -35 27 -32 5 2 1 12 -9 22 -10 9 -18 14 -18 10z"/>
<path d="M1812 539 l-53 -28 32 -35 c17 -20 34 -34 39 -31 4 2 16 -2 26 -10
28 -21 44 -18 43 8 0 21 -1 21 -9 2 -6 -13 -7 1 -4 40 8 81 -4 89 -74 54z"/>
<path d="M2162 516 c2 -16 9 -31 16 -34 17 -5 15 19 -4 43 -15 19 -15 19 -12
-9z"/>
<path d="M1598 519 c-7 -5 -7 -18 2 -44 l12 -37 31 30 c25 25 28 33 18 46 -12
15 -43 17 -63 5z"/>
<path d="M2002 505 c6 -14 17 -25 25 -25 20 0 15 13 -12 33 l-25 18 12 -26z"/>
<path d="M2240 491 c0 -36 12 -46 26 -23 8 13 6 21 -8 35 -17 16 -18 16 -18
-12z"/>
<path d="M1932 474 c9 -9 21 -15 27 -13 6 2 -2 10 -17 17 -25 11 -25 11 -10
-4z"/>
<path d="M1653 433 l-32 -4 26 -40 c14 -21 28 -39 32 -39 3 0 14 16 24 36 18
36 15 55 -6 52 -7 0 -27 -3 -44 -5z"/>
<path d="M1750 365 c-10 -13 -9 -15 8 -15 15 0 20 5 16 15 -4 8 -7 15 -9 15
-1 0 -8 -7 -15 -15z"/>
<path d="M2985 360 c-14 -6 -5 -9 35 -9 40 0 49 3 35 9 -11 5 -27 9 -35 9 -8
0 -24 -4 -35 -9z"/>
</g>
</svg>
